<svg xmlns="http://www.w3.org/2000/svg" viewBox="0 0 240 230" fill="none"><g style="filter: drop-shadow(rgba(0, 0, 0, 0.07) 0px 2px 4px);"><g clip-path="url(#_r_m_-b)"><rect x="24" width="464.971" height="260.324" rx="9.029" fill="#fff"></rect><g clip-path="url(#_r_m_-c)"><path fill="#fff" d="M24 0h464.971v42.133H24z"></path><mask id="_r_m_-d" fill="#fff"><path d="M24 0h125.529v42.133H24z"></path></mask><path d="M24 0h125.529v42.133H24z" fill="#fff"></path><path d="M149.529 0h-.752v42.133h1.505V0zM24 42.133h.752V0h-1.504v42.133z" fill="#e5e5e5" mask="url(#_r_m_-d)"></path><path d="M49.788 19.774s1.44-2.053.083-4.012c-1.714-2.163-3.628-1.295-3.628-1.295s-3.41 1.814-5.296 3.099c-1.451 1.036-2.322 2.342-1.068 4.53 1.265 2.176 4.747 1.253 4.747 1.253" stroke="#fe640b" stroke-width="0.752" stroke-linecap="round" stroke-linejoin="round"></path><path d="M39.713 22.427s-1.44 2.052-.083 4.01c1.358 1.97 3.628 1.286 3.628 1.286s3.41-1.803 5.296-3.088c1.451-1.037 2.322-2.343 1.068-4.53-1.265-2.176-4.747-1.254-4.747-1.254m-1.886 1.171 4.29-2.653m-5.099 7.514 4.291-2.643" stroke="#fe640b" stroke-width="0.752" stroke-linecap="round" stroke-linejoin="round"></path><text fill="#171717" xml:space="preserve" font-size="15.048" letter-spacing="-.04em" style="white-space: pre;"><tspan x="59.481" y="26.401">users.svelte</tspan></text></g><path d="M488.596 42.509v217.438H24.376V42.509z" fill="#fafafa"></path><path d="M488.596 42.509v217.438H24.376V42.509z" stroke="#e5e5e5" stroke-width="0.752"></path><path stroke="#e5e5e5" stroke-width="9.997" stroke-linecap="round" stroke-dasharray="62.84 12.85" d="M59.094 67.23h182.804M59.094 101.505h297.057M59.094 135.781h229.933M59.094 170.058h169.951"></path></g><rect x="24.376" y="0.376" width="464.219" height="259.571" rx="8.652" stroke="#e5e5e5" stroke-width="0.752"></rect></g><g style="filter: drop-shadow(rgba(0, 0, 0, 0.07) 0px 2px 4px);"><g clip-path="url(#_r_m_-e)"><rect x="40" y="34.162" width="434.876" height="211.419" rx="9.029" fill="#fff"></rect><g clip-path="url(#_r_m_-f)"><path fill="#fff" d="M40 34.162h434.876v42.133H40z"></path><mask id="_r_m_-g" fill="#fff"><path d="M40 34.162h110.388v42.133H40z"></path></mask><path d="M40 34.162h110.388v42.133H40z" fill="#fff"></path><path d="M150.388 34.162h-.752v42.133h1.505V34.162zM40 76.295h.752V34.162h-1.504v42.133z" fill="#e5e5e5" mask="url(#_r_m_-g)"></path><path d="M62.68 58.135c4.213 0 7.633-1.302 7.633-2.91s-3.42-2.91-7.633-2.91-7.632 1.302-7.632 2.91 3.42 2.92 7.632 2.92z" stroke="#1e66f5" stroke-width="0.752" stroke-linecap="round" stroke-linejoin="round"></path><path d="M60.156 56.68c2.107 3.664 4.946 5.964 6.34 5.16 1.394-.814.814-4.416-1.292-8.07-2.107-3.653-4.946-5.953-6.34-5.149s-.814 4.417 1.292 8.06" stroke="#1e66f5" stroke-width="0.752" stroke-linecap="round" stroke-linejoin="round"></path><path d="M60.156 53.77c-2.106 3.653-2.686 7.266-1.292 8.07 1.394.803 4.233-1.507 6.34-5.16 2.106-3.643 2.686-7.256 1.292-8.06-1.394-.814-4.233 1.496-6.34 5.15" stroke="#1e66f5" stroke-width="0.752" stroke-linecap="round" stroke-linejoin="round"></path><path d="M63.19 55.226a.509.509 0 1 1-1.018 0 .509.509 0 0 1 1.018 0" stroke="#1e66f5" stroke-width="0.752" stroke-linecap="round" stroke-linejoin="round"></path><text fill="#171717" xml:space="preserve" font-size="15.048" letter-spacing="-.04em" style="white-space: pre;"><tspan x="79.341" y="60.563">users.tsx</tspan></text></g><path d="M474.5 76.67v168.534H40.376V76.671z" fill="#fafafa"></path><path d="M474.5 76.67v168.534H40.376V76.671z" stroke="#e5e5e5" stroke-width="0.752"></path><path stroke="#e5e5e5" stroke-width="9.997" stroke-linecap="round" stroke-dasharray="62.84 12.85" d="M75.094 101.392h182.804M75.094 135.667h297.057M75.094 169.943h229.933M75.094 204.22h169.951"></path></g><rect x="40.376" y="34.538" width="434.124" height="210.667" rx="8.652" stroke="#e5e5e5" stroke-width="0.752"></rect></g><g style="filter: drop-shadow(rgba(0, 0, 0, 0.07) 0px 2px 4px);"><g clip-path="url(#_r_m_-h)"><rect x="56" y="68.324" width="453.686" height="162.514" rx="9.029" fill="#fff"></rect><g clip-path="url(#_r_m_-i)"><path fill="#fff" d="M56 68.324h453.686v42.133H56z"></path><mask id="_r_m_-j" fill="#fff"><path d="M56 68.324h112.088v42.134H56z"></path></mask><path d="M56 68.324h112.088v42.134H56z" fill="#fff"></path><path d="M168.088 68.324h-.752v42.134h1.504V68.324zM56 110.458h.752V68.324h-1.504v42.134z" fill="#e5e5e5" mask="url(#_r_m_-j)"></path><path d="M71.048 83.371h5.037l1.445 2.834 1.445-2.834h5.037L77.539 95.41z" stroke="#40a02b" stroke-width="0.669" stroke-linecap="round" stroke-linejoin="round"></path><path d="m81.28 83.584-3.75 6.991-3.75-6.991" stroke="#40a02b" stroke-width="0.669" stroke-linecap="round" stroke-linejoin="round"></path><text fill="#171717" xml:space="preserve" font-size="15.048" letter-spacing="-.04em" style="white-space: pre;"><tspan x="93.04" y="94.725">users.vue</tspan></text></g><path fill="#fafafa" d="M56.376 110.833h452.933v119.629H56.376z"></path><path stroke="#e5e5e5" stroke-width="0.752" d="M56.376 110.833h452.933v119.629H56.376z"></path><path stroke="#e5e5e5" stroke-width="9.997" stroke-linecap="round" stroke-dasharray="62.84 12.85" d="M95.274 139.734h182.804M95.274 174.009h297.057M95.274 208.285h229.933"></path></g><rect x="56.376" y="68.7" width="452.933" height="161.762" rx="8.652" stroke="#e5e5e5" stroke-width="0.752"></rect></g><g style="filter: drop-shadow(rgba(0, 0, 0, 0.07) 0px 2px 4px);"><g clip-path="url(#_r_m_-k)"><rect x="72" y="102.486" width="453.686" height="162.514" rx="9.029" fill="#fff"></rect><g clip-path="url(#_r_m_-l)"><path fill="#fff" d="M72 102.486h453.686v42.133H72z"></path><mask id="_r_m_-m" fill="#fff"><path d="M72 102.486h158.676v42.134H72z"></path></mask><path d="M72 102.486h158.676v42.134H72z" fill="#fff"></path><path d="M230.676 102.486h-.752v42.134h1.504v-42.134zM72 144.62h.752v-42.134h-1.504v42.134z" fill="#e5e5e5" mask="url(#_r_m_-m)"></path><path fill-rule="evenodd" clip-rule="evenodd" d="M102.757 129.288c-.307.464-.539 1.036-1.163 1.036-1.05 0-1.107-1.619-2.158-1.619s-.993 1.619-2.043 1.619-1.107-1.619-2.158-1.619-.994 1.619-2.044 1.619-1.107-1.619-2.158-1.619-.993 1.619-2.044 1.619c-.33 0-.562-.16-.758-.379a8.97 8.97 0 0 1-1.183-4.478c0-4.798 3.705-8.686 8.276-8.686s8.276 3.889 8.276 8.686c0 1.37-.303 2.667-.843 3.821" fill="#fb70a9"></path><path fill-rule="evenodd" clip-rule="evenodd" d="M102.757 129.288c-.307.464-.539 1.036-1.163 1.036-1.05 0-1.107-1.619-2.158-1.619s-.993 1.619-2.043 1.619-1.107-1.619-2.158-1.619-.994 1.619-2.044 1.619-1.107-1.619-2.158-1.619-.993 1.619-2.044 1.619c-.33 0-.562-.16-.758-.379a8.97 8.97 0 0 1-1.183-4.478c0-4.798 3.705-8.686 8.276-8.686s8.276 3.889 8.276 8.686c0 1.37-.303 2.667-.843 3.821" fill="#fb70a9"></path><path fill-rule="evenodd" clip-rule="evenodd" d="M100.967 130.151q3.253-4.84.168-10.737a8.66 8.66 0 0 1 2.465 6.07 8.7 8.7 0 0 1-.873 3.808c-.318.462-.56 1.031-1.207 1.031a.94.94 0 0 1-.553-.172" fill="#e24ca6"></path><path fill-rule="evenodd" clip-rule="evenodd" d="M94.88 127.633c2.879 0 4.09-1.669 4.09-4.04s-1.83-4.554-4.09-4.554c-2.258 0-4.089 2.183-4.089 4.554s1.211 4.04 4.09 4.04" fill="#fff"></path><path d="M93.78 123.727c.847 0 1.534-.758 1.534-1.692 0-.935-.686-1.693-1.533-1.693s-1.534.758-1.534 1.693c0 .934.686 1.692 1.534 1.692" fill="#030776"></path><path d="M93.525 122.424c.423 0 .767-.35.767-.781a.774.774 0 0 0-.767-.782.774.774 0 0 0-.767.781c0 .432.343.782.767.782" fill="#fff"></path><text fill="#171717" xml:space="preserve" font-size="15.048" letter-spacing="-.04em" style="white-space: pre;"><tspan x="112.628" y="128.887">users.blade.php</tspan></text></g><path fill="#fafafa" d="M72.376 144.995h452.933v119.629H72.376z"></path><path stroke="#e5e5e5" stroke-width="0.752" d="M72.376 144.995h452.933v119.629H72.376z"></path><path stroke="#e5e5e5" stroke-width="9.997" stroke-linecap="round" stroke-dasharray="62.84 12.85" d="M107.094 169.716h182.804m-182.804 34.276h297.057"></path></g><rect x="72.376" y="102.863" width="452.933" height="161.762" rx="8.652" stroke="#e5e5e5" stroke-width="0.752"></rect></g><defs><clipPath id="_r_m_-b"><rect x="24" width="464.971" height="260.324" rx="9.029" fill="#fff"></rect></clipPath><clipPath id="_r_m_-c"><path fill="#fff" d="M24 0h464.971v42.133H24z"></path></clipPath><clipPath id="_r_m_-e"><rect x="40" y="34.162" width="434.876" height="211.419" rx="9.029" fill="#fff"></rect></clipPath><clipPath id="_r_m_-f"><path fill="#fff" d="M40 34.162h434.876v42.133H40z"></path></clipPath><clipPath id="_r_m_-h"><rect x="56" y="68.324" width="453.686" height="162.514" rx="9.029" fill="#fff"></rect></clipPath><clipPath id="_r_m_-i"><path fill="#fff" d="M56 68.324h453.686v42.133H56z"></path></clipPath><clipPath id="_r_m_-k"><rect x="72" y="102.486" width="453.686" height="162.514" rx="9.029" fill="#fff"></rect></clipPath><clipPath id="_r_m_-l"><path fill="#fff" d="M72 102.486h453.686v42.133H72z"></path></clipPath></defs></svg>