<svg width="136" height="30" viewBox="0 0 136 30" fill="none" xmlns="http://www.w3.org/2000/svg">
<path d="M9.92119e-05 29.2002V0.400194H5.7601V29.2002H9.92119e-05ZM2.8801 29.2002V24.7602H13.5201V29.2002H2.8801ZM14.1273 29.2002L20.4873 0.400194H24.8473L19.5673 29.2002H14.1273ZM28.2873 29.2002L23.0073 0.400194H27.7673L34.1273 29.2002H28.2873ZM18.2873 18.5202H29.8873V22.9602H18.2873V18.5202ZM35.9001 29.2002V0.400194H44.6601C46.4201 0.400194 47.8868 0.760194 49.0601 1.48019C50.2334 2.17353 51.1134 3.12019 51.7001 4.32019C52.3134 5.49353 52.6201 6.81353 52.6201 8.2802C52.6201 10.2269 52.0868 11.8402 51.0201 13.1202C49.9534 14.3735 48.3668 15.2802 46.2601 15.8402L46.6201 13.9602C48.6468 14.2002 50.0734 14.8535 50.9001 15.9202C51.7268 16.9602 52.1401 18.3335 52.1401 20.0402V29.2002H46.3801V20.4402C46.3801 19.3735 46.1268 18.5735 45.6201 18.0402C45.1401 17.5069 44.4468 17.2402 43.5401 17.2402H39.9801V12.7602H43.8601C44.7934 12.7602 45.5268 12.4135 46.0601 11.7202C46.5934 11.0269 46.8601 10.0135 46.8601 8.68019C46.8601 7.37353 46.5934 6.37353 46.0601 5.6802C45.5268 4.98686 44.7934 4.64019 43.8601 4.64019H41.6601V29.2002H35.9001ZM53.4648 29.2002L59.8248 0.400194H64.1848L58.9048 29.2002H53.4648ZM67.6248 29.2002L62.3448 0.400194H67.1048L73.4648 29.2002H67.6248ZM57.6248 18.5202H69.2248V22.9602H57.6248V18.5202ZM83.5773 29.6002C82.0306 29.6002 80.6306 29.2802 79.3773 28.6402C78.1506 27.9735 77.1106 27.0135 76.2573 25.7602C75.404 24.4802 74.7506 22.9202 74.2973 21.0802C73.844 19.2402 73.6173 17.1469 73.6173 14.8002C73.6173 12.4269 73.844 10.3335 74.2973 8.52019C74.7506 6.68019 75.404 5.13353 76.2573 3.88019C77.1106 2.60019 78.164 1.64019 79.4173 1.00019C80.6706 0.333528 82.0973 0.00019455 83.6973 0.00019455C85.5906 0.00019455 87.2173 0.466861 88.5773 1.40019C89.9373 2.30686 90.9906 3.62686 91.7373 5.36019C92.5106 7.06686 92.9106 9.1602 92.9373 11.6402H87.2973C87.244 9.18686 86.8973 7.40019 86.2573 6.28019C85.6173 5.13353 84.724 4.56019 83.5773 4.56019C82.6973 4.56019 81.9373 4.89353 81.2973 5.56019C80.684 6.22686 80.2173 7.30686 79.8973 8.80019C79.604 10.2669 79.4573 12.2135 79.4573 14.6402C79.4573 17.0935 79.6173 19.0935 79.9373 20.6402C80.2573 22.1602 80.724 23.2802 81.3373 24.0002C81.9773 24.6935 82.7373 25.0402 83.6173 25.0402C84.7106 25.0402 85.5773 24.4535 86.2173 23.2802C86.8573 22.1069 87.204 20.3335 87.2573 17.9602H92.9773C92.924 20.3869 92.5106 22.4669 91.7373 24.2002C90.964 25.9335 89.884 27.2669 88.4973 28.2002C87.1106 29.1335 85.4706 29.6002 83.5773 29.6002ZM104.778 29.6002C103.151 29.6002 101.698 29.2802 100.418 28.6402C99.1379 27.9735 98.0579 27.0002 97.1779 25.7202C96.2979 24.4402 95.6179 22.8802 95.1379 21.0402C94.6846 19.2002 94.4579 17.0802 94.4579 14.6802C94.4579 11.5335 94.8579 8.86686 95.6579 6.68019C96.4579 4.49353 97.6312 2.84019 99.1779 1.72019C100.725 0.573528 102.578 0.00019455 104.738 0.00019455C106.978 0.00019455 108.858 0.560194 110.378 1.68019C111.925 2.80019 113.098 4.46686 113.898 6.68019C114.698 8.86686 115.098 11.5469 115.098 14.7202C115.098 17.1202 114.871 19.2402 114.418 21.0802C113.965 22.9202 113.298 24.4802 112.418 25.7602C111.538 27.0135 110.458 27.9735 109.178 28.6402C107.898 29.2802 106.431 29.6002 104.778 29.6002ZM104.738 25.0402C105.751 25.0402 106.591 24.6669 107.258 23.9202C107.925 23.1735 108.418 22.0402 108.738 20.5202C109.085 18.9735 109.258 17.0135 109.258 14.6402C109.258 12.2935 109.085 10.3869 108.738 8.92019C108.418 7.42686 107.925 6.33353 107.258 5.64019C106.591 4.92019 105.751 4.56019 104.738 4.56019C103.751 4.56019 102.925 4.92019 102.258 5.64019C101.591 6.33353 101.098 7.41353 100.778 8.88019C100.458 10.3469 100.298 12.2669 100.298 14.6402C100.298 17.0135 100.458 18.9735 100.778 20.5202C101.125 22.0402 101.631 23.1735 102.298 23.9202C102.965 24.6669 103.778 25.0402 104.738 25.0402ZM117.505 29.2002V0.400194H124.425L131.665 25.1602L130.185 25.3202V0.400194H135.505V29.2002H128.585L121.345 4.44019L122.825 4.28019V29.2002H117.505Z" fill="white"/>
</svg>
