<svg xmlns:xlink="http://www.w3.org/1999/xlink" viewBox="0 0 1512 896" fill="none" xmlns="http://www.w3.org/2000/svg">
<g mask="url(#_R_36_-radial-mask)">
<rect fill="url(#grid-_R_36_)" width="2000" height="2000" transform="matrix(0.865593 0.500749 -0.865593 0.500749 664 -703)">
</rect>
</g>
<g transform="translate(-160 0)">
<g>
<path d="m915.712 531.55-3.557-2.054c-25.228-14.564-66.131-14.564-91.359 0L566.214 676.468c-22.074 12.744-22.074 33.406 0 46.149l9.268 5.35" stroke="#171717" stroke-width="2.472">
</path>
<path d="m729.583 639.004 49.893 28.803c47.303 27.308 47.298 71.58-.004 98.888L419.778 974.349c-22.074 12.744-57.864 12.744-79.938 0l-95.568-55.171" stroke="#d97757" stroke-width="2.472">
</path>
<path d="M516.374 817.307c4.65 2.685 6.976 6.204 6.976 9.723.001 3.519-2.325 7.039-6.976 9.725-9.303 5.37-24.385 5.37-33.687 0-4.651-2.685-6.976-6.204-6.977-9.723s2.325-7.039 6.977-9.725c9.302-5.37 24.384-5.37 33.687 0" fill="#fff">
</path>
<path d="M516.373 830.594c4.651-2.685 6.976-6.203 6.977-9.722v6.158c0 3.52-2.325 7.04-6.977 9.725zm-40.663-9.723c.001 3.519 2.326 7.038 6.977 9.723v6.16c-4.651-2.684-6.976-6.203-6.977-9.722zm6.977 9.723c9.302 5.37 24.384 5.37 33.686 0v6.161c-9.302 5.37-24.384 5.37-33.686 0z" fill="#2563eb" stroke="#2563eb" stroke-width="1.051" stroke-linejoin="round">
</path>
<path d="M684.728 663.209c23.88 14.337 23.855 37.267-.474 51.35L319.597 925.64c-21.627 12.52-56.746 12.533-78.403.031l-4.083-2.358" stroke="#2563eb" stroke-width="2.423">
</path>
<circle cx="19.911" cy="19.911" r="19.386" transform="matrix(.86604 -.49997 .86604 .49997 465.027 820.812)" fill="#2563eb" stroke="#2563eb" stroke-width="1.051" stroke-linejoin="round">
</circle>
<path d="M483.236 830.17c-8.988-5.188-8.988-13.601 0-18.79s23.56-5.188 32.548 0c8.988 5.189 8.988 13.602 0 18.79-8.988 5.189-23.56 5.189-32.548 0" fill="url(#_R_5b6_-b)">
</path>
<path d="M483.236 830.17c-8.988-5.188-8.988-13.601 0-18.79s23.56-5.188 32.548 0c8.988 5.189 8.988 13.602 0 18.79-8.988 5.189-23.56 5.189-32.548 0" fill="#2563eb" opacity="0.15">
</path>
<path d="m52.417 1026.35 861.05-496.709" stroke="#f53003" stroke-width="2.472">
</path>
<g filter="url(#_R_5b6_-c)">
<path d="M534.48 799.977c-7.445-4.298-7.445-11.266 0-15.564l110.219-63.63c7.445-4.298 19.515-4.298 26.959 0 7.445 4.298 7.445 11.266 0 15.564l-110.219 63.63c-7.445 4.298-19.515 4.298-26.959 0" fill="#fff" shape-rendering="crispEdges">
</path>
<path d="M644.29 720.546c7.671-4.428 20.107-4.428 27.778 0 7.67 4.429 7.671 11.609 0 16.037l-110.219 63.631c-7.671 4.428-20.108 4.428-27.779-.001-7.67-4.428-7.67-11.607 0-16.036z" stroke="#2563eb" stroke-width="0.946" shape-rendering="crispEdges">
</path>
<g stroke="#2563eb" stroke-width="0.811">
<path d="M552.056 794.56c.904-.522-.196-2.004-2.458-3.31s-4.829-1.941-5.734-1.418c-.904.522.196 2.004 2.458 3.31s4.829 1.941 5.734 1.418Z" stroke-miterlimit="10" stroke-linecap="square">
</path>
<path d="m543.863 794.559 8.192-4.729">
</path>
<path d="M552.055 794.56c2.262-1.306 2.262-3.423 0-4.729s-5.929-1.306-8.191 0-2.262 3.423 0 4.729 5.929 1.306 8.191 0Z" stroke-miterlimit="10" stroke-linecap="square">
</path>
</g>
<text transform="matrix(.86604 -.49997 .86604 .49997 553.026 783.771)" fill="#2563eb" style="white-space:pre" xml:space="preserve" font-size="15.133" font-weight="500" letter-spacing="-.01em">
<tspan x="0" y="10.896">v13.laravel.cloud</tspan>
</text>
</g>
<g filter="url(#_R_5b6_-e)">
<path d="M620.48 856.477c-7.445-4.298-7.445-11.266 0-15.564l119.746-69.13c7.444-4.298 19.514-4.298 26.959 0 7.444 4.298 7.444 11.266 0 15.564l-119.746 69.13c-7.445 4.298-19.515 4.298-26.959 0" fill="#fff" shape-rendering="crispEdges">
</path>
<path d="M739.816 771.547c7.671-4.429 20.107-4.429 27.778 0 7.671 4.428 7.671 11.608.001 16.036l-119.746 69.131c-7.671 4.428-20.108 4.428-27.779-.001-7.67-4.428-7.67-11.607 0-16.036z" stroke="#d97757" stroke-width="0.946" shape-rendering="crispEdges">
</path>
<g stroke="#d97757" stroke-width="0.811">
<path d="M638.056 851.06c.905-.522-.195-2.004-2.457-3.31s-4.829-1.941-5.734-1.418c-.905.522.195 2.004 2.457 3.31s4.829 1.941 5.734 1.418Z" stroke-miterlimit="10" stroke-linecap="square">
</path>
<path d="m629.864 851.059 8.192-4.729">
</path>
<path d="M638.056 851.06c2.262-1.306 2.262-3.423 0-4.729s-5.93-1.306-8.192 0-2.262 3.423 0 4.729 5.93 1.306 8.192 0Z" stroke-miterlimit="10" stroke-linecap="square">
</path>
</g>
<text transform="matrix(.86604 -.49997 .86604 .49997 639.026 840.271)" fill="#d97757" style="white-space:pre" xml:space="preserve" font-size="15.133" font-weight="500" letter-spacing="-.01em">
<tspan x="0" y="10.896">skills.laravel.cloud</tspan>
</text>
</g>
<path d="M605.269 870.635c4.651 2.685 6.976 6.204 6.977 9.723 0 3.519-2.325 7.039-6.977 9.725-9.302 5.37-24.384 5.37-33.687 0-4.65-2.685-6.976-6.204-6.977-9.723 0-3.519 2.325-7.039 6.977-9.725 9.303-5.37 24.385-5.37 33.687 0" fill="#fff">
</path>
<path d="M605.269 864.475c-9.302-5.37-24.385-5.37-33.687 0v6.161c9.302-5.371 24.385-5.371 33.687 0zm6.976 9.722c0-3.519-2.326-7.038-6.976-9.722v6.16c4.65 2.685 6.976 6.204 6.976 9.723zm-40.663-9.722c-4.652 2.685-6.977 6.205-6.977 9.725v6.158c.001-3.519 2.327-7.038 6.977-9.723z" fill="#fff" stroke="#d97757" stroke-width="1.051" stroke-linejoin="round">
</path>
<path d="M605.269 883.922c4.65-2.684 6.976-6.203 6.976-9.722v6.158c.001 3.52-2.325 7.04-6.976 9.725zm-40.664-9.723c.001 3.519 2.327 7.038 6.977 9.723v6.161c-4.65-2.685-6.976-6.204-6.977-9.723zm6.977 9.723c9.302 5.37 24.385 5.37 33.687 0v6.161c-9.302 5.37-24.385 5.37-33.687 0z" fill="#d97757" stroke="#d97757" stroke-width="1.051" stroke-linejoin="round">
</path>
<circle cx="19.911" cy="19.911" r="19.386" transform="matrix(.86604 -.49997 .86604 .49997 553.923 874.141)" fill="#fff" stroke="#d97757" stroke-width="1.051" stroke-linejoin="round">
</circle>
<path d="m591.657 879.383-1.921-3.43-.167-.059-.093.055v.166l-.035.568-.053 1.941-.07 1.683-.088 1.63-.089.41-.511.377-.255-.044-.234-.349.044-.494.075-1.092.115-1.638.07-1.189.185-1.76v-.28l-.114-.041-.071.095-.07.073-1.159 1.679-1.225 1.817-.705.95-.357.515-.334.257-.732.102-.524-.481.044-.634.044-.161.498-.635 1.071-1.356 1.33-1.771.22-.259-.075-.106-.052-.014-.199.115-1.775.946-1.807 1.012-.749.451-.449.115a2.2 2.2 0 0 1-.529.066l-.736-.55-.096-.299.097-.716.264-.297 1.026-.43 1.617-.695 2.199-1.084.652-.317.604-.165.185-.063v-.114l-.106-.001-1.238-.112-1.52-.196-1.956-.198-.551-.066-.661-.282-.357-.544.203-.416.498-.338.321.054 1.344.227 2.106.437 1.41.285v-.153l-.176-.178-.948-.724-1.498-1.214-.594-.534-.657-.623-.313-.399v-.744l.82-.533.846.259.978.781.828.648 1.234.93.987.585.079-.052-.013-.136-.441-2.062-.202-1.115-.23-1.329.282-.594.287-.061.586.245.352 1.423.335 1.668.591 2.485.022.031.044-.034.105-1.114.027-.476v-1.168l.163-2.171.379-.563.462-.333.353.062.449.883-.282 1.176-.661 2.745-.238.941v.131l.08.001.775-.775 1.313-1.421 1.692-1.779.419-.085.33.237-.035.244-1.203 1.568-.542.604-1.176 1.367v.092l.123.002.471-.312 2.556-1.646.784-.075.256.127.154.44-.088.479-1.397.966-1.573.994-1.41.799.058.101 5.265.572.268.232.203.528-.335.432-.542.223-1.07-.25-1.397-.302-1.11-.246-1.379-.228-.459-.13-.03.008.013.101 1.427 1.056 2.137 1.605 1.339 1.264.119.299-.268.512-.481-.056-.427-.296-2.203-1.754-1.366-1.059-.788-.682-.115.002v.039l2.987 4.616.106.815-.33.344-.542-.052-.177-.169-.951-1.389z" fill="#d97757">
</path>
<path d="M692.364 658.895c2.143 1.208 3.214 2.792 3.215 4.376s-1.072 3.168-3.215 4.377c-4.287 2.417-11.237 2.417-15.524 0-2.143-1.209-3.214-2.792-3.215-4.376s1.072-3.169 3.215-4.377c4.287-2.417 11.237-2.417 15.524 0" fill="#fff">
</path>
<path d="M692.364 656.121c-4.287-2.417-11.237-2.417-15.524 0v2.773c4.287-2.417 11.237-2.417 15.524 0z" fill="#fff" stroke="#f53003" stroke-width="0.946" stroke-linejoin="round">
</path>
<path d="M695.578 660.497c0-1.584-1.072-3.168-3.215-4.376v2.773c2.143 1.208 3.215 2.792 3.215 4.376zm-18.738-4.376c-2.143 1.209-3.215 2.793-3.215 4.377v2.772c.001-1.584 1.072-3.168 3.215-4.376z" fill="#fff" stroke="#f53003" stroke-width="0.946" stroke-linejoin="round">
</path>
<path d="M692.363 664.875c2.143-1.208 3.215-2.792 3.215-4.376v2.772c.001 1.584-1.071 3.168-3.215 4.377zm-18.738-4.377c.001 1.584 1.072 3.168 3.215 4.376v2.773c-2.143-1.209-3.214-2.792-3.215-4.376z" fill="#f53003" stroke="#f53003" stroke-width="0.946" stroke-linejoin="round">
</path>
<path d="M676.84 664.875c4.287 2.417 11.237 2.417 15.524 0v2.773c-4.287 2.417-11.237 2.417-15.524 0z" fill="#f53003" stroke="#f53003" stroke-width="0.946" stroke-linejoin="round">
</path>
<circle cx="9.122" cy="9.122" r="8.649" transform="matrix(.87107 -.49116 .87107 .49116 668.703 660.473)" fill="#fff" stroke="#f53003" stroke-width="0.946" stroke-linejoin="round">
</circle>
<path d="M687.083 662.189v-3.413h-5.912" stroke="#f53003" stroke-width="1.419" stroke-linecap="round" stroke-linejoin="round">
</path>
<path d="M582.854 721.918c2.143 1.209 3.215 2.792 3.215 4.376.001 1.584-1.071 3.168-3.215 4.377-4.286 2.417-11.236 2.417-15.523 0-2.143-1.208-3.215-2.792-3.215-4.376s1.072-3.168 3.215-4.377c4.287-2.417 11.237-2.417 15.523 0" fill="#fff">
</path>
<path d="M582.854 719.145c-4.286-2.417-11.236-2.417-15.523 0v2.773c4.287-2.417 11.237-2.417 15.523 0z" fill="#fff" stroke="#f53003" stroke-width="0.946" stroke-linejoin="round">
</path>
<path d="M586.069 723.52c0-1.583-1.072-3.167-3.215-4.375v2.772c2.143 1.209 3.215 2.792 3.215 4.376zm-18.738-4.375c-2.143 1.208-3.215 2.792-3.215 4.377v2.771c0-1.584 1.072-3.167 3.215-4.376z" fill="#fff" stroke="#f53003" stroke-width="0.946" stroke-linejoin="round">
</path>
<path d="M582.854 727.898c2.143-1.208 3.215-2.792 3.215-4.375v2.771c0 1.584-1.071 3.169-3.215 4.377zm-18.738-4.377c0 1.584 1.072 3.168 3.215 4.376v2.773c-2.143-1.208-3.215-2.792-3.215-4.376zm3.215 4.377c4.287 2.417 11.237 2.417 15.523 0v2.773c-4.286 2.417-11.236 2.417-15.523 0z" fill="#f53003" stroke="#f53003" stroke-width="0.946" stroke-linejoin="round">
</path>
<circle cx="9.122" cy="9.122" r="8.649" transform="matrix(.87107 -.49116 .87107 .49116 559.193 723.496)" fill="#fff" stroke="#f53003" stroke-width="0.946" stroke-linejoin="round">
</circle>
<path d="m577.648 725.15.001-3.413h-5.912" stroke="#f53003" stroke-width="1.419" stroke-linecap="round" stroke-linejoin="round">
</path>
<path d="M735.641 634.803c2.143 1.208 3.214 2.792 3.214 4.376.001 1.584-1.071 3.168-3.214 4.377-4.287 2.417-11.237 2.417-15.524 0-2.143-1.209-3.214-2.792-3.215-4.376s1.072-3.168 3.215-4.377c4.287-2.417 11.237-2.417 15.524 0" fill="#fff">
</path>
<path d="M735.64 632.03c-4.286-2.417-11.236-2.417-15.523 0v2.772c4.287-2.417 11.237-2.417 15.523 0zm3.215 4.375c0-1.584-1.072-3.167-3.215-4.376v2.773c2.143 1.208 3.215 2.792 3.215 4.376zm-18.738-4.376c-2.143 1.209-3.215 2.793-3.215 4.377v2.772c.001-1.584 1.072-3.168 3.215-4.376z" fill="#fff" stroke="#f53003" stroke-width="0.946" stroke-linejoin="round">
</path>
<path d="M735.64 640.783c2.143-1.208 3.215-2.792 3.215-4.376v2.772c0 1.584-1.071 3.168-3.215 4.377zm-18.738-4.377c.001 1.584 1.072 3.168 3.215 4.376v2.773c-2.143-1.208-3.214-2.792-3.215-4.376z" fill="#f53003" stroke="#f53003" stroke-width="0.946" stroke-linejoin="round">
</path>
<path d="M720.117 640.783c4.287 2.417 11.237 2.417 15.523 0v2.773c-4.286 2.417-11.236 2.417-15.523 0z" fill="#f53003" stroke="#f53003" stroke-width="0.946" stroke-linejoin="round">
</path>
<circle cx="9.122" cy="9.122" r="8.649" transform="matrix(.87107 -.49116 .87107 .49116 711.979 636.381)" fill="#fff" stroke="#f53003" stroke-width="0.946" stroke-linejoin="round">
</circle>
<path d="M729.289 637.969v-3.413l-5.912-.001" stroke="#f53003" stroke-width="1.419" stroke-linecap="round" stroke-linejoin="round">
</path>
<path d="M764.532 567.3c6.278 3.624 9.417 8.374 9.418 13.124.001 4.751-3.139 9.502-9.418 13.127-12.556 7.249-32.915 7.249-45.471 0-6.278-3.624-9.417-8.374-9.418-13.124-.001-4.751 3.138-9.502 9.418-13.127 12.556-7.249 32.915-7.249 45.471 0" fill="#fff">
</path>
<path d="M764.532 558.984c-12.556-7.249-32.915-7.249-45.471 0v8.316c12.556-7.249 32.915-7.249 45.471 0zm9.418 13.122c-.001-4.75-3.14-9.499-9.418-13.124v8.316c6.278 3.625 9.417 8.374 9.418 13.124zm-54.889-13.124c-6.28 3.625-9.419 8.377-9.418 13.128v8.313c.001-4.75 3.14-9.5 9.418-13.125z" fill="#fff" stroke="#171717" stroke-width="1.419" stroke-linejoin="round">
</path>
<path d="M764.532 585.235c6.278-3.624 9.417-8.374 9.418-13.124v8.312c.001 4.752-3.139 9.503-9.418 13.128zm-54.889-13.124c.001 4.75 3.14 9.5 9.418 13.124v8.316c-6.278-3.624-9.417-8.374-9.418-13.124zm9.418 13.123c12.556 7.249 32.915 7.249 45.471 0v8.316c-12.556 7.249-32.915 7.249-45.471 0z" fill="#171717" stroke="#171717" stroke-width="1.419" stroke-linejoin="round">
</path>
<circle cx="26.877" cy="26.877" r="26.168" transform="matrix(.86604 -.49997 .86604 .49997 695.224 572.031)" fill="#fff" stroke="#171717" stroke-width="1.419" stroke-linejoin="round">
</circle>
<g stroke="#171717" stroke-width="2.517" stroke-linecap="round" stroke-linejoin="round">
<path d="m746.182 573.427-12.564 1.943-6.767-3.906c-2.933-1.693-2.932-4.438.001-6.131 1.961-1.133 4.738-1.508 7.24-1.125">
</path>
<path d="m741.109 574.213-9.197-5.309 2.477-5.337c1.073-2.313 5.191-3.685 9.197-3.066 2.68.414 4.631 1.615 5.307 3.057">
</path>
<path d="m737.395 572.069 3.366-7.253 9.245-1.43c4.006-.62 8.123.753 9.197 3.066.717 1.547-.108 3.123-1.933 4.182">
</path>
<path d="m738.755 569.14 12.563-1.943 6.767 3.907c2.933 1.693 2.932 4.437 0 6.131-1.962 1.132-4.739 1.507-7.24 1.124">
</path>
<path d="m743.827 568.355 9.198 5.31-2.478 5.337c-1.073 2.312-5.191 3.685-9.197 3.065-2.68-.414-4.631-1.615-5.307-3.057">
</path>
<path d="m747.541 570.499-3.366 7.253-9.245 1.43c-4.006.62-8.124-.753-9.197-3.066-.717-1.547.108-3.123 1.933-4.182">
</path>
</g>
</g>
<defs>
<filter id="blue-tint" color-interpolation-filters="sRGB">
<feColorMatrix type="saturate" values="0"/>
<feColorMatrix type="matrix" values="0.4 0 0 0 0.2  0 0.5 0 0 0.35  0 0 0.7 0 0.6  0 0 0 1 0"/>
</filter>
<filter id="_R_5b6_-c" x="521" y="713" width="164.138" height="98.543" filterUnits="userSpaceOnUse" color-interpolation-filters="sRGB">
<feFlood flood-opacity="0" result="BackgroundImageFix">
</feFlood>
<feColorMatrix in="SourceAlpha" values="0 0 0 0 0 0 0 0 0 0 0 0 0 0 0 0 0 0 127 0" result="hardAlpha">
</feColorMatrix>
<feOffset dy="3.783">
</feOffset>
<feColorMatrix values="0 0 0 0 0.145098 0 0 0 0 0.388235 0 0 0 0 0.921569 0 0 0 1 0">
</feColorMatrix>
<feBlend in2="BackgroundImageFix" result="effect1_dropShadow_109_4710">
</feBlend>
<feColorMatrix in="SourceAlpha" values="0 0 0 0 0 0 0 0 0 0 0 0 0 0 0 0 0 0 127 0" result="hardAlpha">
</feColorMatrix>
<feOffset dy="1.892">
</feOffset>
<feComposite in2="hardAlpha" operator="out">
</feComposite>
<feColorMatrix values="0 0 0 0 0.145098 0 0 0 0 0.388235 0 0 0 0 0.921569 0 0 0 1 0">
</feColorMatrix>
<feBlend in2="effect1_dropShadow_109_4710" result="effect2_dropShadow_109_4710">
</feBlend>
<feBlend in="SourceGraphic" in2="effect2_dropShadow_109_4710" result="shape">
</feBlend>
</filter>
<filter id="_R_5b6_-e" x="607" y="764.002" width="173.665" height="104.041" filterUnits="userSpaceOnUse" color-interpolation-filters="sRGB">
<feFlood flood-opacity="0" result="BackgroundImageFix">
</feFlood>
<feColorMatrix in="SourceAlpha" values="0 0 0 0 0 0 0 0 0 0 0 0 0 0 0 0 0 0 127 0" result="hardAlpha">
</feColorMatrix>
<feOffset dy="3.783">
</feOffset>
<feColorMatrix values="0 0 0 0 0.85098 0 0 0 0 0.466667 0 0 0 0 0.341176 0 0 0 1 0">
</feColorMatrix>
<feBlend in2="BackgroundImageFix" result="effect1_dropShadow_109_4710">
</feBlend>
<feColorMatrix in="SourceAlpha" values="0 0 0 0 0 0 0 0 0 0 0 0 0 0 0 0 0 0 127 0" result="hardAlpha">
</feColorMatrix>
<feOffset dy="1.892">
</feOffset>
<feComposite in2="hardAlpha" operator="out">
</feComposite>
<feColorMatrix values="0 0 0 0 0.85098 0 0 0 0 0.466667 0 0 0 0 0.341176 0 0 0 1 0">
</feColorMatrix>
<feBlend in2="effect1_dropShadow_109_4710" result="effect2_dropShadow_109_4710">
</feBlend>
<feBlend in="SourceGraphic" in2="effect2_dropShadow_109_4710" result="shape">
</feBlend>
</filter>
<pattern id="_R_5b6_-b" patternContentUnits="objectBoundingBox" width="1" height="1">
<use xlink:href="#_R_5b6_-h" transform="scale(.00195) rotate(-45) translate(-258 104)">
</use>
</pattern>
<image id="_R_5b6_-h" width="512" height="512" preserveAspectRatio="none" href="/img/taylor-otwell.avif" filter="url(#blue-tint)">
</image>
</defs> <g>
<rect opacity="0.1" width="159.971" height="320.106" transform="matrix(0.865593 0.500749 -0.865593 0.500749 1147.77 555.758)" fill="#171717">
</rect>
</g>
<g>
<g style="--index:0" transform="translate(0 -0)">
<rect width="159.971" height="320.106" transform="matrix(0.865593 0.500749 -0.865593 0.500749 1147.77 514.102)" fill="white" fill-opacity="0.8" stroke="#171717" stroke-linejoin="bevel">
</rect>
<rect width="159.949" height="57.6556" transform="matrix(0.865561 0.500804 3.17692e-05 1 1147.79 456.391)" fill="white" fill-opacity="0.8" stroke="#171717" stroke-linejoin="bevel">
</rect>
<g>
<g clip-path="url(#_R_tb6_-left-face-blur)" filter="url(#_R_tb6_-blur)">
<rect width="160.198" height="57.6556" transform="matrix(0.865561 0.500804 -3.17692e-05 -1 870.492 674.273)" fill="white">
</rect>
<rect width="133.714" height="39.8371" transform="matrix(0.865561 0.500804 3.17692e-05 1 892.934 629.037)" fill="#2563EB">
</rect>
</g>
<g>
<rect width="302.5" height="39.7538" transform="matrix(0.865561 -0.500804 -3.17692e-05 1 1008.46 696.568)" fill="#2563EB">
</rect>
<rect width="302.5" height="39.7538" transform="matrix(0.865561 -0.500804 -3.17692e-05 1 1008.46 696.568)" stroke="#171717">
</rect>
</g>
<g transform="matrix(0.865561 -0.500804 -3.17692e-05 1 1008.46 696.568)">
<g transform="translate(0 10)">
<svg width="312" height="18" viewBox="0 0 312 32" fill="none" xmlns="http://www.w3.org/2000/svg">
<path d="M54.0912 0.283821H48.655V31.423H64.3025V26.4639H54.0912V0.283821Z" fill="white">
</path>
<path d="M83.4963 12.0203C82.8039 10.8975 81.8183 10.0148 80.5427 9.37232C79.2671 8.72983 77.9821 8.40858 76.6908 8.40858C75.0191 8.40858 73.4908 8.72047 72.106 9.34737C70.7181 9.97427 69.5298 10.832 68.538 11.9236C67.5462 13.0152 66.7727 14.2752 66.2207 15.7037C65.6686 17.1322 65.3942 18.6324 65.3942 20.2043C65.3942 21.7762 65.6686 23.317 66.2207 24.7298C66.7727 26.1427 67.5431 27.3934 68.538 28.485C69.5298 29.5766 70.7213 30.4343 72.106 31.0612C73.4908 31.6881 75.0191 32 76.6908 32C77.9821 32 79.2671 31.6788 80.5427 31.0363C81.8183 30.3938 82.8039 29.5111 83.4963 28.3883V31.4199H88.6488V8.98557H83.4963V12.0203ZM83.0222 22.9489C82.7072 23.816 82.2643 24.5708 81.6998 25.2133C81.1322 25.8557 80.446 26.3704 79.6445 26.754C78.8398 27.1407 77.9509 27.331 76.9747 27.331C75.9985 27.331 75.1158 27.1376 74.3267 26.754C73.5376 26.3673 72.8608 25.8557 72.2932 25.2133C71.7255 24.5708 71.292 23.816 70.9926 22.9489C70.6932 22.0819 70.5435 21.168 70.5435 20.2043C70.5435 19.2405 70.6932 18.3267 70.9926 17.4597C71.292 16.5926 71.7255 15.8378 72.2932 15.1953C72.8608 14.5528 73.5376 14.0382 74.3267 13.6546C75.1127 13.2678 75.9953 13.0776 76.9747 13.0776C77.954 13.0776 78.8429 13.271 79.6445 13.6546C80.446 14.0382 81.1322 14.5528 81.6998 15.1953C82.2675 15.8378 82.7072 16.5926 83.0222 17.4597C83.3372 18.3267 83.4963 19.2405 83.4963 20.2043C83.4963 21.168 83.3372 22.0819 83.0222 22.9489Z" fill="white">
</path>
<path d="M125.38 12.0203C124.688 10.8975 123.702 10.0148 122.427 9.37232C121.151 8.72983 119.866 8.40858 118.575 8.40858C116.903 8.40858 115.375 8.72047 113.99 9.34737C112.602 9.97427 111.414 10.832 110.422 11.9236C109.43 13.0152 108.657 14.2752 108.104 15.7037C107.552 17.1322 107.278 18.6324 107.278 20.2043C107.278 21.7762 107.552 23.317 108.104 24.7298C108.657 26.1427 109.427 27.3934 110.422 28.485C111.414 29.5766 112.605 30.4343 113.99 31.0612C115.378 31.6881 116.903 32 118.575 32C119.866 32 121.151 31.6788 122.427 31.0363C123.702 30.3938 124.688 29.5111 125.38 28.3883V31.4199H130.533V8.98557H125.38V12.0203ZM124.906 22.9489C124.591 23.816 124.148 24.5708 123.584 25.2133C123.016 25.8557 122.33 26.3704 121.528 26.754C120.724 27.1407 119.835 27.331 118.858 27.331C117.882 27.331 117 27.1376 116.211 26.754C115.421 26.3673 114.745 25.8557 114.177 25.2133C113.609 24.5708 113.176 23.816 112.876 22.9489C112.577 22.0819 112.427 21.168 112.427 20.2043C112.427 19.2405 112.577 18.3267 112.876 17.4597C113.176 16.5926 113.609 15.8378 114.177 15.1953C114.745 14.5528 115.421 14.0382 116.211 13.6546C117 13.2678 117.879 13.0776 118.858 13.0776C119.838 13.0776 120.727 13.271 121.528 13.6546C122.333 14.0413 123.016 14.5528 123.584 15.1953C124.151 15.8378 124.591 16.5926 124.906 17.4597C125.221 18.3267 125.38 19.2405 125.38 20.2043C125.38 21.168 125.221 22.0819 124.906 22.9489Z" fill="white">
</path>
<path d="M187.06 0.283821H181.907V31.423H187.06V0.283821Z" fill="white">
</path>
<path d="M92.7127 31.423H97.8651V14.1505H106.707V8.98557H92.7158V31.423H92.7127Z" fill="white">
</path>
<path d="M151.192 8.98557L144.714 26.1676L138.236 8.98557H133.018L141.477 31.423H147.952L156.41 8.98557H151.192Z" fill="white">
</path>
<path d="M167.648 8.40858C161.338 8.40858 156.345 13.6889 156.345 20.2043C156.345 27.4058 161.179 32 168.309 32C172.301 32 174.846 30.4468 177.962 27.0628L174.481 24.3181C174.481 24.3181 171.855 27.8331 167.935 27.8331C163.378 27.8331 161.46 24.0904 161.46 22.1567H178.554C179.453 14.7431 174.668 8.4117 167.651 8.4117L167.648 8.40858ZM161.469 18.255C161.51 17.8246 162.102 12.5786 167.607 12.5786C173.112 12.5786 173.779 17.8246 173.82 18.255H161.469Z" fill="white">
</path>
<path fill-rule="evenodd" clip-rule="evenodd" d="M31.1891 21.0745L20.7938 31.4698H0V10.6791L10.3953 0.283821H31.1891V21.0776V21.0745ZM10.3953 6.52164V8.60195H22.871V21.0776H24.9513V6.52164H10.3953ZM10.3953 4.44133H27.0285V21.0745H29.1088V2.36101H10.3953V4.44133ZM10.3953 10.6791V21.0745H20.7906V10.6791H10.3953Z" fill="white">
</path>
<path d="M235.329 0.364912H230.176V31.5041H235.329V0.364912Z" fill="white">
</path>
<path fill-rule="evenodd" clip-rule="evenodd" d="M299.157 31.7942C297.201 31.7942 295.433 31.3263 293.855 30.3938C292.277 29.4394 291.032 28.1138 290.121 26.4265C289.233 24.7361 288.787 22.793 288.787 20.591C288.787 18.3891 289.242 16.4772 290.153 14.7899C291.063 13.0776 292.299 11.7552 293.855 10.8226C295.433 9.86823 297.201 9.38791 299.157 9.38791C300.579 9.38791 301.87 9.65614 303.024 10.1895C304.203 10.701 305.201 11.4464 306.025 12.4226V0.311891H311.193V31.4261H306.125V28.7251C305.301 29.7045 304.291 30.4593 303.09 30.9926C301.911 31.5259 300.601 31.7942 299.157 31.7942ZM294.089 20.591C294.089 21.8791 294.345 23.0144 294.856 23.9906C295.368 24.97 296.079 25.7248 296.989 26.2581C297.9 26.7914 298.945 27.0597 300.124 27.0597C301.303 27.0597 302.348 26.7914 303.258 26.2581C304.169 25.7248 304.88 24.97 305.392 23.9906C305.903 23.0113 306.159 21.8791 306.159 20.591C306.159 19.3029 305.903 18.202 305.392 17.2226C304.88 16.2433 304.169 15.4885 303.258 14.9552C302.348 14.4 301.303 14.1224 300.124 14.1224C298.945 14.1224 297.9 14.4 296.989 14.9552C296.079 15.4885 295.368 16.2433 294.856 17.2226C294.345 18.202 294.089 19.3248 294.089 20.591Z" fill="white">
</path>
<path d="M285.4 31.4261H280.231V28.6597C279.92 29.4363 279.23 30.1598 278.164 30.8273C277.119 31.4729 275.818 31.7942 274.262 31.7942C272.618 31.7942 271.127 31.4043 269.792 30.6277C268.483 29.8261 267.438 28.7158 266.658 27.2936C265.903 25.8495 265.523 24.2027 265.523 22.3595V9.75283H270.725V22.2565C270.725 23.7224 271.159 24.9138 272.026 25.8246C272.893 26.7135 274.037 27.1595 275.46 27.1595C276.882 27.1595 278.026 26.7135 278.893 25.8246C279.76 24.9138 280.194 23.7224 280.194 22.2565V9.75283H285.396V31.4261H285.4Z" fill="white">
</path>
<path fill-rule="evenodd" clip-rule="evenodd" d="M244.561 30.3938C246.295 31.3263 248.272 31.7942 250.496 31.7942C252.72 31.7942 254.684 31.3263 256.397 30.3938C258.131 29.4612 259.475 28.1481 260.433 26.4577C261.39 24.7454 261.867 22.7899 261.867 20.5879C261.867 18.386 261.39 16.4429 260.433 14.7524C259.475 13.062 258.131 11.752 256.397 10.8164C254.684 9.86199 252.716 9.38168 250.496 9.38168C248.275 9.38168 246.295 9.85887 244.561 10.8164C242.848 11.7489 241.513 13.062 240.559 14.7524C239.601 16.4429 239.124 18.386 239.124 20.5879C239.124 22.7899 239.601 24.7454 240.559 26.4577C241.513 28.1481 242.848 29.4581 244.561 30.3938ZM245.225 23.9906C244.713 23.0113 244.458 21.8791 244.458 20.591C244.458 19.3029 244.713 18.202 245.225 17.2226C245.736 16.2214 246.447 15.4542 247.358 14.9209C248.269 14.3657 249.314 14.0881 250.493 14.0881C251.672 14.0881 252.716 14.3657 253.627 14.9209C254.56 15.4542 255.283 16.2214 255.795 17.2226C256.306 18.202 256.562 19.3248 256.562 20.591C256.562 21.8573 256.306 23.0144 255.795 23.9906C255.283 24.97 254.56 25.7341 253.627 26.2924C252.716 26.8257 251.672 27.094 250.493 27.094C249.314 27.094 248.269 26.8257 247.358 26.2924C246.447 25.7372 245.736 24.97 245.225 23.9906Z" fill="white">
</path>
<path fill-rule="evenodd" clip-rule="evenodd" d="M213.406 5.11813C207.243 5.11813 202.315 10.0273 202.315 15.9938C202.315 21.9602 207.243 26.8694 213.406 26.8694C217.189 26.8694 220.52 25.0136 222.519 22.191L226.695 25.1509C223.764 29.2897 218.898 31.9875 213.406 31.9875C204.492 31.9906 197.197 24.8671 197.197 15.9969C197.197 7.12671 204.492 0 213.406 0C218.898 0 223.764 2.70097 226.695 6.83665L222.519 9.79649C220.517 6.97388 217.189 5.11813 213.406 5.11813Z" fill="white">
</path>
</svg>
</g>
</g>
<g clip-path="url(#_R_tb6_-top-face-blur)" filter="url(#_R_tb6_-blur)">
<rect width="320.02" height="159.937" transform="matrix(0.865593 -0.500749 0.865593 0.500749 870.781 616.576)" fill="white">
</rect>
<rect width="298.314" height="133.714" transform="matrix(0.865593 -0.500749 0.865593 0.500749 892.932 629.342)" fill="#2563EB">
</rect>
</g>
</g>
<rect width="160.198" height="57.6556" transform="matrix(0.865561 0.500804 -3.17692e-05 -1 870.492 674.273)" fill="white" fill-opacity="0.8" stroke="#171717" stroke-linejoin="bevel">
</rect>
<rect width="320.02" height="159.937" transform="matrix(0.865593 -0.500749 0.865593 0.500749 870.781 616.576)" fill="white" fill-opacity="0.8" stroke="#171717" stroke-linejoin="bevel">
</rect>
</g>
<defs>
<filter id="_R_tb6_-blur" x="0" y="0" xmlns="http://www.w3.org/2000/svg">
<feGaussianBlur in="SourceGraphic" stdDeviation="3.5">
</feGaussianBlur>
</filter>
<clipPath id="_R_tb6_-left-face-blur">
<rect width="160.198" height="57.6556" transform="matrix(0.865561 0.500804 -3.17692e-05 -1 870.492 674.273)">
</rect>
</clipPath>
<clipPath id="_R_tb6_-top-face-blur">
<rect width="320.02" height="159.937" transform="matrix(0.865593 -0.500749 0.865593 0.500749 870.781 616.576)">
</rect>
</clipPath>
</defs>
<g style="--index:1" transform="translate(0 -57.72)">
<rect width="159.971" height="320.106" transform="matrix(0.865593 0.500749 -0.865593 0.500749 1147.77 514.102)" fill="white" fill-opacity="0.8" stroke="#171717" stroke-linejoin="bevel">
</rect>
<rect width="159.949" height="57.6556" transform="matrix(0.865561 0.500804 3.17692e-05 1 1147.79 456.391)" fill="white" fill-opacity="0.8" stroke="#171717" stroke-linejoin="bevel">
</rect>
<g>
<g clip-path="url(#_R_1db6_-left-face-blur)" filter="url(#_R_1db6_-blur)">
<rect width="160.198" height="57.6556" transform="matrix(0.865561 0.500804 -3.17692e-05 -1 870.492 674.273)" fill="white">
</rect>
<rect width="133.714" height="39.8371" transform="matrix(0.865561 0.500804 3.17692e-05 1 892.934 629.037)" fill="#000">
</rect>
</g>
<g>
<rect width="302.5" height="39.7538" transform="matrix(0.865561 -0.500804 -3.17692e-05 1 1008.46 696.568)" fill="#000">
</rect>
<rect width="302.5" height="39.7538" transform="matrix(0.865561 -0.500804 -3.17692e-05 1 1008.46 696.568)" stroke="#171717">
</rect>
</g>
<g transform="matrix(0.865561 -0.500804 -3.17692e-05 1 1008.46 696.568)">
<g transform="translate(90 -5)">
<svg width="125" height="50" viewBox="0 0 125 16" fill="none" xmlns="http://www.w3.org/2000/svg">
<path d="M5.52051 15.3428C5.2413 15.7538 4.77621 16 4.2793 16H0.2C0.0895428 16 0 15.9105 0 15.8V13.9998C0 13.8893 0.0895431 13.7998 0.2 13.7998H6.19078C6.35129 13.7998 6.44641 13.9794 6.35623 14.1122L5.52051 15.3428ZM22 15.8C22 15.9105 21.9105 16 21.8 16H17.7207C17.2238 16 16.7587 15.7538 16.4795 15.3428L15.6438 14.1122C15.5536 13.9794 15.6487 13.7998 15.8092 13.7998H21.8C21.9105 13.7998 22 13.8893 22 13.9998V15.8ZM7.47748 12.4622C7.44026 12.517 7.37829 12.5498 7.31203 12.5498H0.2C0.0895427 12.5498 0 12.4603 0 12.3498V10.5496C0 10.4392 0.0895431 10.3496 0.2 10.3496H8.53453C8.69505 10.3496 8.79016 10.5292 8.69999 10.662L7.47748 12.4622ZM22 12.3498C22 12.4603 21.9105 12.5498 21.8 12.5498H14.688C14.6217 12.5498 14.5597 12.517 14.5225 12.4622L13.3 10.662C13.2098 10.5292 13.305 10.3496 13.4655 10.3496H21.8C21.9105 10.3496 22 10.4392 22 10.5496V12.3498ZM10.4315 7.88761C10.4775 7.95545 10.4775 8.04455 10.4315 8.11239L9.82026 9.012C9.78303 9.0668 9.72108 9.09961 9.65483 9.09961H0.2C0.0895429 9.09961 0 9.01007 0 8.89961V7.10039C0 6.98993 0.0895431 6.90039 0.2 6.90039H9.65483C9.72108 6.90039 9.78303 6.9332 9.82026 6.988L10.4315 7.88761ZM22 8.89961C22 9.01007 21.9105 9.09961 21.8 9.09961H12.3452C12.2789 9.09961 12.217 9.0668 12.1797 9.012L11.5685 8.11239C11.5225 8.04455 11.5225 7.95545 11.5685 7.88761L12.1797 6.988C12.217 6.9332 12.2789 6.90039 12.3452 6.90039H21.8C21.9105 6.90039 22 6.98993 22 7.10039V8.89961ZM8.69999 5.33803C8.79016 5.47082 8.69505 5.65039 8.53453 5.65039H0.2C0.0895426 5.65039 0 5.56085 0 5.45039V3.6502C0 3.53974 0.0895431 3.4502 0.2 3.4502H7.31203C7.37829 3.4502 7.44026 3.48302 7.47748 3.53784L8.69999 5.33803ZM22 5.45039C22 5.56085 21.9105 5.65039 21.8 5.65039H13.4655C13.305 5.65039 13.2098 5.47082 13.3 5.33803L14.5225 3.53784C14.5597 3.48302 14.6217 3.4502 14.688 3.4502H21.8C21.9105 3.4502 22 3.53974 22 3.6502V5.45039ZM4.2793 0C4.77621 1.76321e-05 5.2413 0.246172 5.52051 0.657227L6.35623 1.88783C6.44641 2.02062 6.35129 2.2002 6.19078 2.2002H0.2C0.0895429 2.2002 0 2.11065 0 2.0002V0.2C0 0.089543 0.0895431 0 0.2 0H4.2793ZM22 2.0002C22 2.11065 21.9105 2.2002 21.8 2.2002H15.8092C15.6487 2.2002 15.5536 2.02062 15.6438 1.88783L16.4795 0.657227C16.7587 0.246163 17.2238 7.55678e-06 17.7207 0H21.8C21.9105 0 22 0.0895431 22 0.2V2.0002Z" fill="white">
</path>
<path d="M34.6227 14H33.8307C33.6627 14 33.5787 13.916 33.5787 13.748V2.678C33.5787 2.51 33.6627 2.426 33.8307 2.426H34.5687C34.7127 2.426 34.8087 2.474 34.8567 2.57L39.8247 11.3H39.8967V2.678C39.8967 2.51 39.9807 2.426 40.1487 2.426H40.9407C41.1087 2.426 41.1927 2.51 41.1927 2.678V13.748C41.1927 13.916 41.1087 14 40.9407 14H40.2747C40.1427 14 40.0167 13.922 39.8967 13.766L34.9467 5.126H34.8747V13.748C34.8747 13.916 34.7907 14 34.6227 14ZM45.2617 2.678V13.748C45.2617 13.916 45.1777 14 45.0097 14H44.1997C44.0317 14 43.9477 13.916 43.9477 13.748V2.678C43.9477 2.51 44.0317 2.426 44.1997 2.426H45.0097C45.1777 2.426 45.2617 2.51 45.2617 2.678ZM52.4475 14H50.5035C49.6755 14 49.0215 13.766 48.5415 13.298C48.0735 12.83 47.8395 12.176 47.8395 11.336V5.09C47.8395 4.25 48.0735 3.596 48.5415 3.128C49.0215 2.66 49.6755 2.426 50.5035 2.426H52.4475C53.2755 2.426 53.9235 2.666 54.3915 3.146C54.8595 3.614 55.0935 4.262 55.0935 5.09V5.828C55.0935 6.008 55.0095 6.098 54.8415 6.098H54.0315C53.8635 6.098 53.7795 6.008 53.7795 5.828V5.144C53.7795 4.1 53.2815 3.578 52.2855 3.578H50.6475C49.6515 3.578 49.1535 4.1 49.1535 5.144V11.282C49.1535 12.326 49.6515 12.848 50.6475 12.848H52.2855C53.2815 12.848 53.7795 12.326 53.7795 11.282V9.266C53.7795 9.146 53.7255 9.086 53.6175 9.086H51.8355C51.6675 9.086 51.5835 9.008 51.5835 8.852V8.186C51.5835 8.018 51.6675 7.934 51.8355 7.934H54.7335C54.9735 7.934 55.0935 8.06 55.0935 8.312V11.336C55.0935 12.176 54.8595 12.83 54.3915 13.298C53.9235 13.766 53.2755 14 52.4475 14ZM58.6397 14H57.8297C57.6617 14 57.5777 13.916 57.5777 13.748V2.678C57.5777 2.51 57.6617 2.426 57.8297 2.426H58.6397C58.8077 2.426 58.8917 2.51 58.8917 2.678V7.412C58.8917 7.52 58.9517 7.574 59.0717 7.574H63.5357C63.6557 7.574 63.7157 7.52 63.7157 7.412V2.678C63.7157 2.51 63.7997 2.426 63.9677 2.426H64.7777C64.9457 2.426 65.0297 2.51 65.0297 2.678V13.748C65.0297 13.916 64.9457 14 64.7777 14H63.9677C63.7997 14 63.7157 13.916 63.7157 13.748V8.888C63.7157 8.78 63.6557 8.726 63.5357 8.726H59.0717C58.9517 8.726 58.8917 8.78 58.8917 8.888V13.748C58.8917 13.916 58.8077 14 58.6397 14ZM70.5245 14H69.7145C69.5465 14 69.4625 13.916 69.4625 13.748V3.74C69.4625 3.632 69.4025 3.578 69.2825 3.578H66.8345C66.6545 3.578 66.5645 3.494 66.5645 3.326V2.678C66.5645 2.51 66.6545 2.426 66.8345 2.426H73.4045C73.5845 2.426 73.6745 2.51 73.6745 2.678V3.326C73.6745 3.494 73.5845 3.578 73.4045 3.578H70.9565C70.8365 3.578 70.7765 3.632 70.7765 3.74V13.748C70.7765 13.916 70.6925 14 70.5245 14ZM78.2602 14H76.8742C76.7062 14 76.6042 13.916 76.5682 13.748L74.2642 2.678C74.2282 2.51 74.3062 2.426 74.4982 2.426H75.4702C75.6502 2.426 75.7462 2.51 75.7582 2.678L77.5762 12.596H77.6842L80.1142 2.66C80.1502 2.504 80.2462 2.426 80.4022 2.426H81.4822C81.6382 2.426 81.7342 2.504 81.7702 2.66L84.2362 12.596H84.3442L86.1442 2.696C86.1802 2.516 86.2822 2.426 86.4502 2.426H87.4222C87.6142 2.426 87.6922 2.516 87.6562 2.696L85.3342 13.748C85.2982 13.916 85.2022 14 85.0462 14H83.6602C83.4922 14 83.3902 13.916 83.3542 13.748L80.9962 4.082H80.9242L78.5482 13.748C78.5122 13.916 78.4162 14 78.2602 14ZM89.5079 14H88.6079C88.4519 14 88.3979 13.916 88.4459 13.748L91.8119 2.678C91.8599 2.51 91.9739 2.426 92.1539 2.426H93.4499C93.6299 2.426 93.7439 2.51 93.7919 2.678L97.1579 13.748C97.2059 13.916 97.1519 14 96.9959 14H96.0779C95.9459 14 95.8619 13.916 95.8259 13.748L94.9799 11.12H90.6239L89.7779 13.748C89.7299 13.916 89.6399 14 89.5079 14ZM92.7659 3.776L90.9119 10.004H94.6919L92.8379 3.776H92.7659ZM101.731 14H100.921C100.753 14 100.669 13.916 100.669 13.748V3.74C100.669 3.632 100.609 3.578 100.489 3.578H98.0406C97.8606 3.578 97.7706 3.494 97.7706 3.326V2.678C97.7706 2.51 97.8606 2.426 98.0406 2.426H104.611C104.791 2.426 104.881 2.51 104.881 2.678V3.326C104.881 3.494 104.791 3.578 104.611 3.578H102.163C102.043 3.578 101.983 3.632 101.983 3.74V13.748C101.983 13.916 101.899 14 101.731 14ZM111.05 14H108.89C108.062 14 107.408 13.766 106.928 13.298C106.46 12.83 106.226 12.176 106.226 11.336V5.09C106.226 4.25 106.46 3.596 106.928 3.128C107.408 2.66 108.062 2.426 108.89 2.426H111.05C111.878 2.426 112.526 2.66 112.994 3.128C113.474 3.596 113.714 4.25 113.714 5.09V5.972C113.714 6.14 113.63 6.224 113.462 6.224H112.652C112.484 6.224 112.4 6.14 112.4 5.972V5.144C112.4 4.1 111.896 3.578 110.888 3.578H109.034C108.038 3.578 107.54 4.1 107.54 5.144V11.282C107.54 12.326 108.038 12.848 109.034 12.848H110.888C111.896 12.848 112.4 12.326 112.4 11.282V10.454C112.4 10.286 112.484 10.202 112.652 10.202H113.462C113.63 10.202 113.714 10.286 113.714 10.454V11.336C113.714 12.176 113.474 12.83 112.994 13.298C112.526 13.766 111.878 14 111.05 14ZM117.027 14H116.217C116.049 14 115.965 13.916 115.965 13.748V2.678C115.965 2.51 116.049 2.426 116.217 2.426H117.027C117.195 2.426 117.279 2.51 117.279 2.678V7.412C117.279 7.52 117.339 7.574 117.459 7.574H121.923C122.043 7.574 122.103 7.52 122.103 7.412V2.678C122.103 2.51 122.187 2.426 122.355 2.426H123.165C123.333 2.426 123.417 2.51 123.417 2.678V13.748C123.417 13.916 123.333 14 123.165 14H122.355C122.187 14 122.103 13.916 122.103 13.748V8.888C122.103 8.78 122.043 8.726 121.923 8.726H117.459C117.339 8.726 117.279 8.78 117.279 8.888V13.748C117.279 13.916 117.195 14 117.027 14Z" fill="white">
</path>
<defs>
</defs>
</svg>
</g>
</g>
<g clip-path="url(#_R_1db6_-top-face-blur)" filter="url(#_R_1db6_-blur)">
<rect width="320.02" height="159.937" transform="matrix(0.865593 -0.500749 0.865593 0.500749 870.781 616.576)" fill="white">
</rect>
<rect width="298.314" height="133.714" transform="matrix(0.865593 -0.500749 0.865593 0.500749 892.932 629.342)" fill="#000">
</rect>
</g>
</g>
<rect width="160.198" height="57.6556" transform="matrix(0.865561 0.500804 -3.17692e-05 -1 870.492 674.273)" fill="white" fill-opacity="0.8" stroke="#171717" stroke-linejoin="bevel">
</rect>
<rect width="320.02" height="159.937" transform="matrix(0.865593 -0.500749 0.865593 0.500749 870.781 616.576)" fill="white" fill-opacity="0.8" stroke="#171717" stroke-linejoin="bevel">
</rect>
</g>
<defs>
<filter id="_R_1db6_-blur" x="0" y="0" xmlns="http://www.w3.org/2000/svg">
<feGaussianBlur in="SourceGraphic" stdDeviation="3.5">
</feGaussianBlur>
</filter>
<clipPath id="_R_1db6_-left-face-blur">
<rect width="160.198" height="57.6556" transform="matrix(0.865561 0.500804 -3.17692e-05 -1 870.492 674.273)">
</rect>
</clipPath>
<clipPath id="_R_1db6_-top-face-blur">
<rect width="320.02" height="159.937" transform="matrix(0.865593 -0.500749 0.865593 0.500749 870.781 616.576)">
</rect>
</clipPath>
</defs>
<g style="--index:2" transform="translate(0 -115.44)">
<rect width="159.971" height="320.106" transform="matrix(0.865593 0.500749 -0.865593 0.500749 1147.77 514.102)" fill="white" fill-opacity="0.8" stroke="#171717" stroke-linejoin="bevel">
</rect>
<rect width="159.949" height="172.9668" transform="matrix(0.865561 0.500804 3.17692e-05 1 1147.79 341.07980000000003)" fill="white" fill-opacity="0.8" stroke="#171717" stroke-linejoin="bevel">
</rect>
<g>
<g clip-path="url(#_R_1tb6_-left-face-blur)" filter="url(#_R_1tb6_-blur)">
<rect width="160.198" height="172.9668" transform="matrix(0.865561 0.500804 -3.17692e-05 -1 870.492 674.273)" fill="white">
</rect>
<rect width="133.714" height="155.1483" transform="matrix(0.865561 0.500804 3.17692e-05 1 892.934 513.7258)" fill="#f61500">
</rect>
</g>
<g>
<rect width="302.5" height="155.065" transform="matrix(0.865561 -0.500804 -3.17692e-05 1 1008.46 581.2568)" fill="#f61500">
</rect>
<rect width="302.5" height="155.065" transform="matrix(0.865561 -0.500804 -3.17692e-05 1 1008.46 581.2568)" stroke="#171717">
</rect>
</g>
<g transform="matrix(0.865561 -0.500804 -3.17692e-05 1 1008.46 581.2568)">
<g transform="translate(-489 50)">
<svg width="1280" height="50" viewBox="0 0 1280 308" xmlns="http://www.w3.org/2000/svg" fill="white">
<path d="M50.2753 0H0V308.689H144.713V263.27H50.2753V0Z" fill="white">
</path>
<path d="M322.209 130.973C315.796 120.684 306.688 112.602 294.883 106.718C283.081 100.84 271.201 97.8969 259.253 97.8969C243.798 97.8969 229.665 100.764 216.843 106.496C204.014 112.228 193.015 120.099 183.834 130.091C174.654 140.088 167.51 151.628 162.412 164.706C157.308 177.792 154.761 191.54 154.761 205.94C154.761 220.645 157.308 234.457 162.412 247.39C167.508 260.332 174.652 271.796 183.834 281.788C193.015 291.785 204.017 299.647 216.843 305.379C229.665 311.111 243.798 313.978 259.253 313.978C271.201 313.978 283.081 311.038 294.883 305.159C306.688 299.282 315.796 291.197 322.209 280.904V308.685H369.865V103.186H322.209V130.973ZM317.837 231.076C314.922 239.016 310.841 245.925 305.598 251.804C300.35 257.687 294.009 262.389 286.579 265.917C279.146 269.445 270.905 271.208 261.875 271.208C252.837 271.208 244.676 269.445 237.391 265.917C230.104 262.389 223.839 257.687 218.593 251.804C213.345 245.925 209.335 239.016 206.57 231.076C203.794 223.138 202.417 214.759 202.417 205.942C202.417 197.12 203.794 188.742 206.57 180.804C209.335 172.866 213.345 165.961 218.593 160.078C223.839 154.201 230.102 149.493 237.391 145.965C244.676 142.437 252.837 140.674 261.875 140.674C270.908 140.674 279.146 142.437 286.579 145.965C294.009 149.493 300.35 154.199 305.598 160.078C310.844 165.961 314.922 172.866 317.837 180.804C320.748 188.742 322.209 197.12 322.209 205.942C322.209 214.759 320.748 223.138 317.837 231.076Z" fill="white">
</path>
<path d="M709.568 130.973C703.155 120.684 694.047 112.602 682.242 106.718C670.44 100.84 658.56 97.8969 646.612 97.8969C631.157 97.8969 617.024 100.764 604.202 106.496C591.373 112.228 580.374 120.099 571.193 130.091C562.013 140.088 554.869 151.628 549.771 164.706C544.666 177.792 542.12 191.54 542.12 205.94C542.12 220.645 544.666 234.457 549.771 247.39C554.867 260.332 562.01 271.796 571.193 281.788C580.374 291.785 591.375 299.647 604.202 305.379C617.024 311.111 631.157 313.978 646.612 313.978C658.56 313.978 670.44 311.038 682.242 305.159C694.047 299.282 703.155 291.197 709.568 280.904V308.685H757.224V103.186H709.568V130.973ZM705.198 231.076C702.283 239.016 698.202 245.925 692.959 251.804C687.711 257.687 681.37 262.389 673.94 265.917C666.507 269.445 658.266 271.208 649.236 271.208C640.198 271.208 632.037 269.445 624.752 265.917C617.465 262.389 611.2 257.687 605.954 251.804C600.706 245.925 596.696 239.016 593.931 231.076C591.155 223.138 589.778 214.759 589.778 205.942C589.778 197.12 591.155 188.742 593.931 180.804C596.696 172.866 600.706 165.961 605.954 160.078C611.2 154.201 617.463 149.493 624.752 145.965C632.037 142.437 640.198 140.674 649.236 140.674C658.269 140.674 666.507 142.437 673.94 145.965C681.37 149.493 687.711 154.199 692.959 160.078C698.205 165.961 702.283 172.866 705.198 180.804C708.109 188.742 709.57 197.12 709.57 205.942C709.568 214.759 708.107 223.138 705.198 231.076Z" fill="white">
</path>
<path d="M1280 1.12315e-05H1232.35V308.689H1280V1.12315e-05Z" fill="white">
</path>
<path d="M407.466 308.689H455.117V150.486H536.876V103.192H407.466V308.689Z" fill="white">
</path>
<path d="M948.281 103.192L888.386 260.557L828.489 103.192H780.224L858.441 308.689H918.331L996.546 103.192H948.281Z" fill="white">
</path>
<path d="M1100.48 97.908C1042.13 97.908 995.937 146.279 995.937 205.944C995.937 271.9 1040.64 313.98 1106.59 313.98C1143.5 313.98 1167.06 299.745 1195.85 268.746L1163.66 243.621C1163.64 243.646 1139.36 275.802 1103.1 275.802C1060.96 275.802 1043.22 241.533 1043.22 223.803H1201.32C1209.62 155.913 1165.37 97.908 1100.48 97.908ZM1043.35 188.085C1043.71 184.13 1049.2 136.086 1100.1 136.086C1151.01 136.086 1157.19 184.123 1157.55 188.085H1043.35Z" fill="white">
</path>
</svg>
</g>
</g>
<g clip-path="url(#_R_1tb6_-top-face-blur)" filter="url(#_R_1tb6_-blur)">
<rect width="320.02" height="159.937" transform="matrix(0.865593 -0.500749 0.865593 0.500749 870.781 501.26480000000004)" fill="white">
</rect>
<rect width="298.314" height="133.714" transform="matrix(0.865593 -0.500749 0.865593 0.500749 892.932 514.0308)" fill="#f61500">
</rect>
</g>
</g>
<rect width="160.198" height="172.9668" transform="matrix(0.865561 0.500804 -3.17692e-05 -1 870.492 674.273)" fill="white" fill-opacity="0.8" stroke="#171717" stroke-linejoin="bevel">
</rect>
<rect width="320.02" height="159.937" transform="matrix(0.865593 -0.500749 0.865593 0.500749 870.781 501.26480000000004)" fill="white" fill-opacity="0.8" stroke="#171717" stroke-linejoin="bevel">
</rect>
</g>
<defs>
<filter id="_R_1tb6_-blur" x="0" y="0" xmlns="http://www.w3.org/2000/svg">
<feGaussianBlur in="SourceGraphic" stdDeviation="3.5">
</feGaussianBlur>
</filter>
<clipPath id="_R_1tb6_-left-face-blur">
<rect width="160.198" height="172.9668" transform="matrix(0.865561 0.500804 -3.17692e-05 -1 870.492 674.273)">
</rect>
</clipPath>
<clipPath id="_R_1tb6_-top-face-blur">
<rect width="320.02" height="159.937" transform="matrix(0.865593 -0.500749 0.865593 0.500749 870.781 501.26480000000004)">
</rect>
</clipPath>
</defs>
<g style="--index:3" transform="translate(0 -288.6)">
<rect width="159.971" height="320.106" transform="matrix(0.865593 0.500749 -0.865593 0.500749 1147.77 514.102)" fill="white" fill-opacity="0.8" stroke="#171717" stroke-linejoin="bevel">
</rect>
<rect width="159.949" height="57.6556" transform="matrix(0.865561 0.500804 3.17692e-05 1 1147.79 456.391)" fill="white" fill-opacity="0.8" stroke="#171717" stroke-linejoin="bevel">
</rect>
<g>
<g clip-path="url(#_R_2db6_-left-face-blur)" filter="url(#_R_2db6_-blur)">
<rect width="160.198" height="57.6556" transform="matrix(0.865561 0.500804 -3.17692e-05 -1 870.492 674.273)" fill="white">
</rect>
<rect width="133.714" height="39.8371" transform="matrix(0.865561 0.500804 3.17692e-05 1 892.934 629.037)" fill="url(#_R_36_-ai-gradient)">
</rect>
</g>
<g>
<rect width="302.5" height="39.7538" transform="matrix(0.865561 -0.500804 -3.17692e-05 1 1008.46 696.568)" fill="url(#_R_36_-ai-gradient)">
</rect>
<rect width="302.5" height="39.7538" transform="matrix(0.865561 -0.500804 -3.17692e-05 1 1008.46 696.568)" stroke="#171717">
</rect>
</g>
<g transform="matrix(0.865561 -0.500804 -3.17692e-05 1 1008.46 696.568)">
<defs>
<linearGradient id="_R_36_-ai-gradient">
<stop offset="0%" stop-color="#f5b9ea">
</stop>
<stop offset="50%" stop-color="#8d99ff">
</stop>
<stop offset="100%" stop-color="#aa6eee">
</stop>
</linearGradient>
</defs>
<g transform="translate(12 6)">
<svg width="281" height="26" viewBox="0 0 281 64" xmlns="http://www.w3.org/2000/svg" fill="white">
<path d="M7.80343 7.625H0V55.5535H22.4615V48.5015H7.80343V7.625Z" fill="white">
</path>
<path d="M50.0114 27.9604C49.0159 26.363 47.6023 25.108 45.77 24.1946C43.9381 23.2818 42.0942 22.8249 40.2397 22.8249C37.8409 22.8249 35.6472 23.2701 33.6571 24.16C31.6659 25.05 29.9587 26.2721 28.5337 27.8236C27.1087 29.3757 25.9999 31.1674 25.2086 33.1979C24.4163 35.2298 24.0211 37.3643 24.0211 39.6001C24.0211 41.8833 24.4163 44.0278 25.2086 46.0359C25.9996 48.0453 27.1084 49.8252 28.5337 51.3767C29.9587 52.9289 31.6662 54.1496 33.6571 55.0395C35.6472 55.9295 37.8409 56.3747 40.2397 56.3747C42.0942 56.3747 43.9381 55.9181 45.77 55.0053C47.6023 54.0929 49.0159 52.8376 50.0114 51.2395V55.5528H57.4082V23.6461H50.0114V27.9604ZM49.3328 43.5028C48.8803 44.7357 48.2469 45.8084 47.4331 46.7212C46.6185 47.6347 45.6344 48.3646 44.481 48.9124C43.3274 49.4602 42.0483 49.734 40.6466 49.734C39.2439 49.734 37.9772 49.4602 36.8465 48.9124C35.7154 48.3646 34.7429 47.6347 33.9287 46.7212C33.1141 45.8084 32.4918 44.7357 32.0625 43.5028C31.6316 42.2704 31.4179 40.9695 31.4179 39.6005C31.4179 38.2308 31.6316 36.9299 32.0625 35.6974C32.4918 34.4649 33.1141 33.3928 33.9287 32.4794C34.7429 31.5669 35.7151 30.836 36.8465 30.2882C37.9772 29.7404 39.2439 29.4666 40.6466 29.4666C42.0487 29.4666 43.3274 29.7404 44.481 30.2882C45.6344 30.836 46.6185 31.5666 47.4331 32.4794C48.2473 33.3928 48.8803 34.4649 49.3328 35.6974C49.7846 36.9299 50.0114 38.2308 50.0114 39.6005C50.0114 40.9695 49.7846 42.2704 49.3328 43.5028Z" fill="white">
</path>
<path d="M110.135 27.9604C109.139 26.363 107.726 25.108 105.894 24.1946C104.062 23.2818 102.218 22.8249 100.363 22.8249C97.9644 22.8249 95.7708 23.2701 93.7806 24.16C91.7894 25.05 90.0822 26.2721 88.6572 27.8236C87.2322 29.3757 86.1234 31.1674 85.3322 33.1979C84.5399 35.2298 84.1446 37.3643 84.1446 39.6001C84.1446 41.8833 84.5399 44.0278 85.3322 46.0359C86.1231 48.0453 87.2319 49.8252 88.6572 51.3767C90.0822 52.9289 91.7897 54.1496 93.7806 55.0395C95.7708 55.9295 97.9644 56.3747 100.363 56.3747C102.218 56.3747 104.062 55.9181 105.894 55.0053C107.726 54.0929 109.139 52.8376 110.135 51.2395V55.5528H117.532V23.6461H110.135V27.9604ZM109.457 43.5028C109.004 44.7357 108.371 45.8084 107.557 46.7212C106.742 47.6347 105.758 48.3646 104.605 48.9124C103.451 49.4602 102.172 49.734 100.77 49.734C99.3678 49.734 98.1011 49.4602 96.9703 48.9124C95.8393 48.3646 94.8668 47.6347 94.0526 46.7212C93.238 45.8084 92.6156 44.7357 92.1864 43.5028C91.7555 42.2704 91.5417 40.9695 91.5417 39.6005C91.5417 38.2308 91.7555 36.9299 92.1864 35.6974C92.6156 34.4649 93.238 33.3928 94.0526 32.4794C94.8668 31.5669 95.8389 30.836 96.9703 30.2882C98.1011 29.7404 99.3678 29.4666 100.77 29.4666C102.173 29.4666 103.451 29.7404 104.605 30.2882C105.758 30.836 106.742 31.5666 107.557 32.4794C108.371 33.3928 109.004 34.4649 109.457 35.6974C109.908 36.9299 110.135 38.2308 110.135 39.6005C110.135 40.9695 109.908 42.2704 109.457 43.5028Z" fill="white">
</path>
<path d="M198.674 7.625H191.277V55.5535H198.674V7.625Z" fill="white">
</path>
<path d="M63.2444 55.5535H70.6406V30.9901H83.3307V23.6471H63.2444V55.5535Z" fill="white">
</path>
<path d="M147.187 23.6471L137.89 48.0802L128.593 23.6471H121.102L133.242 55.5535H142.538L154.678 23.6471H147.187Z" fill="white">
</path>
<path d="M170.81 22.8266C161.753 22.8266 154.583 30.3369 154.583 39.6008C154.583 49.8415 161.522 56.375 171.758 56.375C177.487 56.375 181.144 54.1648 185.613 49.3517L180.616 45.4507C180.613 45.4545 176.844 50.4473 171.217 50.4473C164.676 50.4473 161.922 45.1265 161.922 42.3737H186.461C187.75 31.8327 180.882 22.8266 170.81 22.8266ZM161.942 36.8279C161.999 36.2138 162.851 28.7543 170.752 28.7543C178.653 28.7543 179.613 36.2127 179.668 36.8279H161.942Z" fill="white">
</path>
<path d="M264.674 0C273.51 0 280.674 7.16344 280.674 16V48C280.674 56.8366 273.51 64 264.674 64H232.674C223.837 64 216.674 56.8366 216.674 48V16C216.674 7.16344 223.837 0 232.674 0H264.674ZM251.216 14L228 49.6523H234.132L238.731 42.5898H250.928V49.6338H256.11V14H251.216ZM260.892 14V49.6357H266.074V14H260.892ZM250.928 37.5566H242.008L250.928 23.8584V37.5566Z" fill="white">
</path>
</svg>
</g>
</g>
<g clip-path="url(#_R_2db6_-top-face-blur)" filter="url(#_R_2db6_-blur)">
<rect width="320.02" height="159.937" transform="matrix(0.865593 -0.500749 0.865593 0.500749 870.781 616.576)" fill="white">
</rect>
<rect width="298.314" height="133.714" transform="matrix(0.865593 -0.500749 0.865593 0.500749 892.932 629.342)" fill="url(#_R_36_-ai-gradient)">
</rect>
</g>
</g>
<rect width="160.198" height="57.6556" transform="matrix(0.865561 0.500804 -3.17692e-05 -1 870.492 674.273)" fill="white" fill-opacity="0.8" stroke="#171717" stroke-linejoin="bevel">
</rect>
<rect width="320.02" height="159.937" transform="matrix(0.865593 -0.500749 0.865593 0.500749 870.781 616.576)" fill="white" fill-opacity="0.8" stroke="#171717" stroke-linejoin="bevel">
</rect>
</g>
<defs>
<filter id="_R_2db6_-blur" x="0" y="0" xmlns="http://www.w3.org/2000/svg">
<feGaussianBlur in="SourceGraphic" stdDeviation="3.5">
</feGaussianBlur>
</filter>
<clipPath id="_R_2db6_-left-face-blur">
<rect width="160.198" height="57.6556" transform="matrix(0.865561 0.500804 -3.17692e-05 -1 870.492 674.273)">
</rect>
</clipPath>
<clipPath id="_R_2db6_-top-face-blur">
<rect width="320.02" height="159.937" transform="matrix(0.865593 -0.500749 0.865593 0.500749 870.781 616.576)">
</rect>
</clipPath>
</defs>
<g style="--index:6" transform="translate(0 -346.32)">
<rect width="159.971" height="106.702" transform="matrix(0.865593 0.500749 -0.865593 0.500749 1147.77 514.102)" fill="white" fill-opacity="0.8" stroke="#171717" stroke-linejoin="bevel">
</rect>
<rect width="159.949" height="72.0695" transform="matrix(0.865561 0.500804 3.17692e-05 1 1147.79 441.9771)" fill="white" fill-opacity="0.8" stroke="#171717" stroke-linejoin="bevel">
</rect>
<g>
<g clip-path="url(#_R_2tb6_-left-face-blur)" filter="url(#_R_2tb6_-blur)">
<rect width="160.198" height="72.0695" transform="matrix(0.865561 0.500804 -3.17692e-05 -1 1055.206179644 567.399423184)" fill="white">
</rect>
<rect data-block-face="left-left" width="133.714" height="54.251000000000005" transform="matrix(0.865561 0.500804 3.17692e-05 1 892.934 614.6231)" fill="#4E243D">
</rect>
</g>
<g>
<rect data-block-face="left-side" width="89.096" height="54.1677" transform="matrix(0.865561 -0.500804 -3.17692e-05 1 1193.174179644 575.280523184)" fill="#4E243D">
</rect>
<rect width="89.096" height="54.1677" transform="matrix(0.865561 -0.500804 -3.17692e-05 1 1193.174179644 575.280523184)" stroke="#171717">
</rect>
</g>
<g transform="matrix(0.865561 -0.500804 -3.17692e-05 1 1008.46 682.1541)">
<g transform="translate(-497 4)" data-icon-slot="left">
<g>
<svg xmlns:xlink="http://www.w3.org/1999/xlink" viewBox="0 0 28 28" fill="none" xmlns="http://www.w3.org/2000/svg" height="46">
<path fill-rule="evenodd" clip-rule="evenodd" d="M24.9774 22.4699C24.5241 23.1552 24.1808 23.9992 23.2595 23.9992C21.7089 23.9992 21.6249 21.6079 20.0729 21.6079C18.5217 21.6079 18.6057 23.9992 17.0551 23.9992C15.5045 23.9992 15.4205 21.6079 13.8685 21.6079C12.3173 21.6079 12.4013 23.9992 10.85 23.9992C9.29939 23.9992 9.21539 21.6079 7.66346 21.6079C6.11152 21.6079 6.19685 23.9992 4.64492 23.9992C4.15761 23.9992 3.81495 23.7632 3.5263 23.4392C2.37462 21.4259 1.77187 19.1455 1.77837 16.8261C1.77837 9.74176 7.25014 4 13.9999 4C20.7509 4 26.222 9.74242 26.222 16.8261C26.222 18.8507 25.774 20.766 24.9774 22.4699Z" fill="#FB70A9">
</path>
<path fill-rule="evenodd" clip-rule="evenodd" d="M24.9774 22.4699C24.5241 23.1552 24.1808 23.9992 23.2595 23.9992C21.7089 23.9992 21.6249 21.6079 20.0729 21.6079C18.5217 21.6079 18.6057 23.9992 17.0551 23.9992C15.5045 23.9992 15.4205 21.6079 13.8685 21.6079C12.3173 21.6079 12.4013 23.9992 10.85 23.9992C9.29939 23.9992 9.21539 21.6079 7.66346 21.6079C6.11152 21.6079 6.19685 23.9992 4.64492 23.9992C4.15761 23.9992 3.81495 23.7632 3.5263 23.4392C2.37462 21.4259 1.77187 19.1455 1.77837 16.8261C1.77837 9.74176 7.25014 4 13.9999 4C20.7509 4 26.222 9.74242 26.222 16.8261C26.222 18.8507 25.774 20.766 24.9774 22.4699Z" fill="#FB70A9">
</path>
<path fill-rule="evenodd" clip-rule="evenodd" d="M22.333 23.746C25.5355 18.9815 25.6189 13.6964 22.581 7.89062C24.9212 10.2869 26.2283 13.5055 26.2215 16.8549C26.2215 18.8722 25.7582 20.7814 24.9322 22.4773C24.4623 23.16 24.1056 24.0013 23.1503 24.0013C22.8237 24.0013 22.5597 23.9026 22.333 23.746Z" fill="#E24CA6">
</path>
<path fill-rule="evenodd" clip-rule="evenodd" d="M13.3457 20.0235C17.5962 20.0235 19.3855 17.5583 19.3855 14.0571C19.3855 10.5546 16.6822 7.33203 13.3457 7.33203C10.0105 7.33203 7.30664 10.5552 7.30664 14.0564C7.30664 17.5583 9.09523 20.0235 13.3457 20.0235Z" fill="white">
</path>
<path d="M11.7216 14.2576C12.9722 14.2576 13.9862 13.1376 13.9862 11.7577C13.9862 10.3771 12.9729 9.25781 11.7216 9.25781C10.471 9.25781 9.45703 10.3771 9.45703 11.7577C9.45703 13.1376 10.4703 14.2576 11.7216 14.2576Z" fill="#030776">
</path>
<path d="M11.3442 12.3346C11.9689 12.3346 12.4762 11.8179 12.4762 11.1813C12.4762 10.5433 11.9695 10.0273 11.3436 10.0273C10.7182 10.0273 10.2109 10.5433 10.2109 11.1806C10.2109 11.8179 10.7176 12.3346 11.3442 12.3346Z" fill="white">
</path>
</svg>
</g>
<g>
<svg xmlns:xlink="http://www.w3.org/1999/xlink" viewBox="0 0 28 28" fill="none" xmlns="http://www.w3.org/2000/svg" height="46">
<path d="M16.6634 4.00138L14.0001 8.61981L11.3369 4.00138H2.46777L14.0001 24L25.5325 4.00138H16.6634Z" fill="#41B883">
</path>
<path d="M16.6637 4.00107L14.0005 8.6195L11.3372 4.00107H7.08105L14.0005 16L20.9199 4.00107H16.6637Z" fill="#34495E">
</path>
</svg>
</g>
<g>
<svg xmlns:xlink="http://www.w3.org/1999/xlink" viewBox="0 0 28 28" xmlns="http://www.w3.org/2000/svg" height="46" fill="white">
<g clip-path="url(#clip0_116_4713)">
<path d="M14.0388 11.8516C12.8751 11.8516 11.9316 12.8047 11.9316 13.9805C11.9316 15.1562 12.8751 16.1094 14.0388 16.1094C15.2026 16.1094 16.1461 15.1562 16.1461 13.9805C16.1461 12.8047 15.2026 11.8516 14.0388 11.8516Z" fill="#087EA4">
</path>
<path d="M24.9984 13.9998C24.9984 12.3284 23.4665 10.8626 21.0273 9.89786C21.0599 9.68061 21.0894 9.46571 21.1103 9.25473C21.3509 6.85318 20.7782 5.11987 19.4984 4.37321C18.0666 3.53792 16.0442 4.14419 13.9992 5.79751C11.9543 4.14419 9.93185 3.53792 8.5 4.37321C7.22026 5.11987 6.64752 6.85318 6.8881 9.25473C6.90906 9.46571 6.93777 9.68139 6.97114 9.89943C6.76781 9.97786 6.56836 10.061 6.37668 10.1481C4.19903 11.1371 3 12.5065 3 13.9998C3 15.6711 4.53196 17.137 6.97114 18.1017C6.93777 18.319 6.90906 18.5339 6.8881 18.7448C6.64752 21.1464 7.22026 22.8797 8.5 23.6264C8.93999 23.8784 9.43855 24.0073 9.94426 23.9997C11.1565 23.9997 12.572 23.355 13.9992 22.2021C15.4256 23.355 16.842 23.9997 18.0557 23.9997C18.5614 24.0072 19.06 23.8783 19.5 23.6264C20.7797 22.8797 21.3525 21.1464 21.1119 18.7448C21.0909 18.5339 21.0615 18.319 21.0289 18.1017C23.468 17.1386 25 15.6704 25 13.9998M18.0464 5.05869C18.3716 5.05077 18.693 5.13035 18.9777 5.28928C19.8663 5.8077 20.2652 7.21396 20.0712 9.14728C20.058 9.27904 20.0425 9.41237 20.0238 9.54649C19.0096 9.23781 17.971 9.01766 16.9196 8.88846C16.2822 8.03219 15.5733 7.23267 14.8009 6.49868C16.0139 5.55124 17.1524 5.05869 18.0456 5.05869M17.6289 16.1174C17.2364 16.8059 16.809 17.4734 16.3484 18.1174C15.5676 18.1984 14.7833 18.2388 13.9984 18.2382C13.2139 18.2387 12.4298 18.1984 11.6493 18.1174C11.1899 17.4734 10.7638 16.8059 10.3727 16.1174C9.98017 15.4308 9.62347 14.724 9.30401 13.9998C9.62347 13.2756 9.98017 12.5687 10.3727 11.8822C10.7632 11.1965 11.188 10.5313 11.6454 9.88923C12.4273 9.80618 13.213 9.76481 13.9992 9.76531C14.7838 9.76483 15.5679 9.80515 16.3484 9.8861C16.8074 10.5291 17.2337 11.1954 17.6258 11.8822C18.018 12.5689 18.3747 13.2757 18.6944 13.9998C18.3747 14.7238 18.018 15.4307 17.6258 16.1174M19.2284 15.3331C19.4747 16.0119 19.6769 16.7061 19.8337 17.4115C19.1532 17.6259 18.4594 17.7949 17.7569 17.9174C18.0239 17.5106 18.2826 17.0873 18.533 16.6476C18.7806 16.2131 19.0126 15.7747 19.2315 15.3362M12.5255 19.2491C13.0082 19.2789 13.501 19.2962 14 19.2962C14.499 19.2962 14.9949 19.2789 15.4784 19.2491C15.02 19.804 14.5261 20.328 14 20.8178C13.475 20.3281 12.9824 19.8041 12.5255 19.2491ZM10.2423 17.9158C9.53958 17.7939 8.84557 17.6254 8.16474 17.4115C8.32093 16.7073 8.52236 16.014 8.76774 15.3362C8.98349 15.7747 9.21476 16.2131 9.46621 16.6476C9.71765 17.0821 9.97763 17.5103 10.2423 17.9174M8.76774 12.6625C8.52323 11.9873 8.32233 11.2967 8.16629 10.5951C8.84543 10.381 9.53758 10.2114 10.2384 10.0877C9.97298 10.4931 9.713 10.9135 9.46233 11.352C9.21166 11.7904 8.98271 12.2233 8.76386 12.6625M15.4738 8.74964C14.991 8.71983 14.4982 8.70258 13.9953 8.70258C13.4966 8.70258 13.0051 8.71826 12.5208 8.74964C12.9778 8.19467 13.4703 7.67067 13.9953 7.18102C14.5217 7.67054 15.0155 8.19454 15.4738 8.74964ZM18.5315 11.352C18.28 10.9117 18.02 10.4882 17.7515 10.0814C18.4558 10.2039 19.1514 10.3731 19.8337 10.588C19.6772 11.2922 19.4757 11.9854 19.2307 12.6633C19.015 12.2249 18.7829 11.7865 18.5322 11.3527M7.93037 9.14806C7.73402 7.21553 8.13525 5.80849 9.02307 5.29006C9.30788 5.13138 9.62922 5.05181 9.95435 5.05948C10.8476 5.05948 11.9861 5.55202 13.1991 6.49946C12.4261 7.23398 11.7168 8.03402 11.0789 8.89081C10.0277 9.02063 8.98924 9.23997 7.9746 9.54649C7.95675 9.41237 7.94045 9.27983 7.92804 9.14806M6.80662 11.1135C6.92613 11.0612 7.04798 11.009 7.17215 10.9567C7.41626 11.9975 7.74727 13.0155 8.16163 13.9998C7.74649 14.986 7.41521 16.0061 7.17137 17.0492C5.19395 16.2296 4.04769 15.0939 4.04769 13.9998C4.04769 12.9629 5.05658 11.9112 6.80662 11.1135ZM9.02307 22.7095C8.13525 22.1911 7.73402 20.784 7.93037 18.8515C7.94278 18.7197 7.95908 18.5872 7.97693 18.4523C8.99118 18.7609 10.0297 18.981 11.0812 19.1103C11.7188 19.9669 12.4276 20.7669 13.1999 21.5017C11.5088 22.8217 9.96367 23.2569 9.0254 22.7095M20.0704 18.8515C20.2644 20.7848 19.8655 22.1911 18.9769 22.7095C18.0394 23.2585 16.4935 22.8217 14.8032 21.5017C15.5752 20.7669 16.2838 19.9669 16.9211 19.1103C17.9726 18.9811 19.0112 18.761 20.0254 18.4523C20.044 18.5872 20.0595 18.7197 20.0727 18.8515M20.8317 17.0476C20.5872 16.0052 20.2557 14.9856 19.8407 13.9998C20.2555 13.0134 20.5868 11.9933 20.831 10.9504C22.8045 11.77 23.9539 12.9057 23.9539 13.9998C23.9539 15.0939 22.8076 16.2296 20.8302 17.0492" fill="#087EA4">
</path>
</g>
<defs>
<clipPath id="clip0_116_4713">
<rect width="22" height="20" fill="white" transform="translate(3 4)">
</rect>
</clipPath>
</defs>
</svg>
</g>
<g>
<svg xmlns:xlink="http://www.w3.org/1999/xlink" viewBox="0 0 28 28" fill="none" xmlns="http://www.w3.org/2000/svg" height="46" stroke="white">
<path d="M21.4389 12.0906C21.4389 12.0906 23.5664 9.06004 21.5613 6.16726C19.0301 2.9722 16.2043 4.25405 16.2043 4.25405C16.2043 4.25405 11.1688 6.93254 8.38313 8.83045C6.24033 10.361 4.95465 12.2895 6.80664 15.519C8.67393 18.7332 13.8166 17.371 13.8166 17.371" stroke="#FE640B" stroke-width="1.11109" stroke-linecap="round" stroke-linejoin="round">
</path>
<path d="M6.56201 16.0082C6.56201 16.0082 4.43451 19.0388 6.43956 21.9315C8.44461 24.8396 11.7966 23.8295 11.7966 23.8295C11.7966 23.8295 16.8321 21.1663 19.6178 19.2684C21.7606 17.7378 23.0462 15.8093 21.1942 12.5798C19.327 9.36557 14.1842 10.7278 14.1842 10.7278M11.3986 12.4573L17.7352 8.53906M10.2048 19.6357L16.5413 15.7327" stroke="#FE640B" stroke-width="1.11109" stroke-linecap="round" stroke-linejoin="round">
</path>
</svg>
</g>
</g>
</g>
<g clip-path="url(#_R_2tb6_-top-face-blur)" filter="url(#_R_2tb6_-blur)">
<rect width="106.67333333333332" height="159.937" transform="matrix(0.865593 -0.500749 0.865593 0.500749 1055.502008572 495.300260404)" fill="white">
</rect>
<rect data-block-face="left-top" width="84.91000000000003" height="133.714" transform="matrix(0.865593 -0.500749 0.865593 0.500749 1077.653008572 508.066260404)" fill="#4E243D">
</rect>
</g>
</g>
<rect width="160.198" height="72.0695" transform="matrix(0.865561 0.500804 -3.17692e-05 -1 1055.206179644 567.399423184)" fill="white" fill-opacity="0.8" stroke="#171717" stroke-linejoin="bevel">
</rect>
<rect width="106.67333333333332" height="159.937" transform="matrix(0.865593 -0.500749 0.865593 0.500749 1055.502008572 495.300260404)" fill="white" fill-opacity="0.8" stroke="#171717" stroke-linejoin="bevel">
</rect>
</g>
<defs>
<filter id="_R_2tb6_-blur" x="0" y="0" xmlns="http://www.w3.org/2000/svg">
<feGaussianBlur in="SourceGraphic" stdDeviation="3.5">
</feGaussianBlur>
</filter>
<clipPath id="_R_2tb6_-left-face-blur">
<rect width="160.198" height="72.0695" transform="matrix(0.865561 0.500804 -3.17692e-05 -1 1055.206179644 567.399423184)">
</rect>
</clipPath>
<clipPath id="_R_2tb6_-top-face-blur">
<rect width="106.67333333333332" height="159.937" transform="matrix(0.865593 -0.500749 0.865593 0.500749 1055.502008572 495.300260404)">
</rect>
</clipPath>
</defs>
<g style="--index:5" transform="translate(0 -346.32)">
<rect width="159.971" height="106.702" transform="matrix(0.865593 0.500749 -0.865593 0.500749 1055.4094957139998 567.532919798)" fill="white" fill-opacity="0.8" stroke="#171717" stroke-linejoin="bevel">
</rect>
<rect width="159.949" height="72.0695" transform="matrix(0.865561 0.500804 3.17692e-05 1 1055.432910178 495.41388840800005)" fill="white" fill-opacity="0.8" stroke="#171717" stroke-linejoin="bevel">
</rect>
<g>
<g clip-path="url(#_R_3db6_-left-face-blur)" filter="url(#_R_3db6_-blur)">
<rect width="160.198" height="72.0695" transform="matrix(0.865561 0.500804 -3.17692e-05 -1 962.849089822 620.836211592)" fill="white">
</rect>
<rect width="133.714" height="54.251000000000005" transform="matrix(0.865561 0.500804 3.17692e-05 1 892.934 614.6231)" fill="url(#_R_36_-mcp-gradient)">
</rect>
</g>
<g>
<rect width="89.096" height="54.1677" transform="matrix(0.865561 -0.500804 -3.17692e-05 1 1100.817089822 628.717311592)" fill="url(#_R_36_-mcp-gradient)">
</rect>
<rect width="89.096" height="54.1677" transform="matrix(0.865561 -0.500804 -3.17692e-05 1 1100.817089822 628.717311592)" stroke="#171717">
</rect>
</g>
<g transform="matrix(0.865561 -0.500804 -3.17692e-05 1 1008.46 682.1541)">
<defs>
<linearGradient id="_R_36_-mcp-gradient">
<stop offset="0%" stop-color="#aa6eee">
</stop>
<stop offset="100%" stop-color="#8d99ff">
</stop>
</linearGradient>
</defs>
<g transform="translate(-600 9)">
<svg xmlns:xlink="http://www.w3.org/1999/xlink" viewBox="0 0 40 40" xmlns="http://www.w3.org/2000/svg" height="36" fill="white">
<path d="M25.4842 4H4V25.4842H25.4842V4Z" stroke="white" stroke-width="4.5">
</path>
<path d="M35.5545 10.043H10.042V35.5555H35.5545V10.043Z" stroke="white" stroke-width="1.62535">
</path>
<path d="M31.5263 14.0703H14.0703V31.5263H31.5263V14.0703Z" stroke="white" stroke-width="1.62535">
</path>
</svg>
</g>
</g>
<g clip-path="url(#_R_3db6_-top-face-blur)" filter="url(#_R_3db6_-blur)">
<rect width="106.67333333333332" height="159.937" transform="matrix(0.865593 -0.500749 0.865593 0.500749 963.141504286 548.731180202)" fill="white">
</rect>
<rect width="84.91000000000003" height="133.714" transform="matrix(0.865593 -0.500749 0.865593 0.500749 985.292504286 561.497180202)" fill="url(#_R_36_-mcp-gradient)">
</rect>
</g>
</g>
<rect width="160.198" height="72.0695" transform="matrix(0.865561 0.500804 -3.17692e-05 -1 962.849089822 620.836211592)" fill="white" fill-opacity="0.8" stroke="#171717" stroke-linejoin="bevel">
</rect>
<rect width="106.67333333333332" height="159.937" transform="matrix(0.865593 -0.500749 0.865593 0.500749 963.141504286 548.731180202)" fill="white" fill-opacity="0.8" stroke="#171717" stroke-linejoin="bevel">
</rect>
</g>
<defs>
<filter id="_R_3db6_-blur" x="0" y="0" xmlns="http://www.w3.org/2000/svg">
<feGaussianBlur in="SourceGraphic" stdDeviation="3.5">
</feGaussianBlur>
</filter>
<clipPath id="_R_3db6_-left-face-blur">
<rect width="160.198" height="72.0695" transform="matrix(0.865561 0.500804 -3.17692e-05 -1 962.849089822 620.836211592)">
</rect>
</clipPath>
<clipPath id="_R_3db6_-top-face-blur">
<rect width="106.67333333333332" height="159.937" transform="matrix(0.865593 -0.500749 0.865593 0.500749 963.141504286 548.731180202)">
</rect>
</clipPath>
</defs>
<g style="--index:4" transform="translate(0 -346.32)">
<rect width="159.971" height="106.702" transform="matrix(0.865593 0.500749 -0.865593 0.500749 963.0489914279999 620.963839596)" fill="white" fill-opacity="0.8" stroke="#171717" stroke-linejoin="bevel">
</rect>
<rect width="159.949" height="72.0695" transform="matrix(0.865561 0.500804 3.17692e-05 1 963.0758203559999 548.850676816)" fill="white" fill-opacity="0.8" stroke="#171717" stroke-linejoin="bevel">
</rect>
<g>
<g clip-path="url(#_R_3tb6_-left-face-blur)" filter="url(#_R_3tb6_-blur)">
<rect width="160.198" height="72.0695" transform="matrix(0.865561 0.500804 -3.17692e-05 -1 870.492 674.273)" fill="white">
</rect>
<rect data-block-face="right-left" width="133.714" height="54.251000000000005" transform="matrix(0.865561 0.500804 3.17692e-05 1 892.934 614.6231)" fill="#222">
</rect>
</g>
<g>
<rect data-block-face="right-side" width="89.096" height="54.1677" transform="matrix(0.865561 -0.500804 -3.17692e-05 1 1008.46 682.1541)" fill="#222">
</rect>
<rect width="89.096" height="54.1677" transform="matrix(0.865561 -0.500804 -3.17692e-05 1 1008.46 682.1541)" stroke="#171717">
</rect>
</g>
<g transform="matrix(0.865561 -0.500804 -3.17692e-05 1 1008.46 682.1541)">
<g transform="translate(-710 10)" data-icon-slot="right">
<g>
<svg xmlns:xlink="http://www.w3.org/1999/xlink" viewBox="0 0 16 16" xmlns="http://www.w3.org/2000/svg" height="32" fill="white">
<path d="M6.18298 9.04898V3.85298L9.49398 1.94098C10.929 1.11298 12.764 1.60398 13.592 3.03898C14.146 3.99898 14.11 5.13798 13.595 6.03398" stroke="white" stroke-linecap="round" stroke-linejoin="round">
</path>
<path d="M7.99993 5.90198L12.4999 8.49998V12.323C12.4999 13.98 11.1569 15.323 9.49993 15.323C8.39193 15.323 7.42393 14.722 6.90393 13.828" stroke="white" stroke-linecap="round" stroke-linejoin="round">
</path>
<path d="M9.81697 9.04902L5.31697 11.647L2.00597 9.73502C0.570974 8.90702 0.0789743 7.07202 0.907974 5.63702C1.46197 4.67702 2.46697 4.13902 3.49997 4.13702" stroke="white" stroke-linecap="round" stroke-linejoin="round">
</path>
<path d="M8 10.098L3.5 7.5V3.677C3.5 2.02 4.843 0.677002 6.5 0.677002C7.608 0.677002 8.576 1.278 9.096 2.172" stroke="white" stroke-linecap="round" stroke-linejoin="round">
</path>
<path d="M6.18298 6.95103L10.683 4.35303L13.994 6.26503C15.429 7.09303 15.921 8.92803 15.092 10.363C14.538 11.323 13.533 11.861 12.5 11.863" stroke="white" stroke-linecap="round" stroke-linejoin="round">
</path>
<path d="M9.81696 6.95099V12.147L6.50596 14.059C5.07096 14.887 3.23596 14.396 2.40796 12.961C1.85396 12.001 1.88996 10.862 2.40496 9.96599" stroke="white" stroke-linecap="round" stroke-linejoin="round">
</path>
</svg>
</g>
<g>
<svg xmlns="http://www.w3.org/2000/svg" fill="none" viewBox="0 0 16 16" height="32">
<path d="M16 8.016A8.522 8.522 0 008.016 16h-.032A8.521 8.521 0 000 8.016v-.032A8.521 8.521 0 007.984 0h.032A8.522 8.522 0 0016 7.984v.032z" fill="url(#prefix__paint0_radial_980_20147)">
</path>
<defs>
<radialGradient id="prefix__paint0_radial_980_20147" cx="0" cy="0" r="1" gradientUnits="userSpaceOnUse" gradientTransform="matrix(16.1326 5.4553 -43.70045 129.2322 1.588 6.503)">
<stop offset="0.067" stop-color="#9168C0">
</stop>
<stop offset="0.343" stop-color="#5684D1">
</stop>
<stop offset="0.672" stop-color="#1BA1E3">
</stop>
</radialGradient>
</defs>
</svg>
</g>
<g>
<svg xmlns:xlink="http://www.w3.org/1999/xlink" viewBox="0 0 17 16" fill="none" xmlns="http://www.w3.org/2000/svg" height="32">
<path fill-rule="evenodd" clip-rule="evenodd" d="M3.63933 10.6367L6.786 8.872L6.83933 8.71867L6.786 8.63333H6.63333L6.10667 8.60133L4.308 8.55267L2.74867 8.488L1.238 8.40667L0.857333 8.326L0.5 7.856L0.536667 7.62133L0.856667 7.40733L1.314 7.44733L2.32733 7.516L3.846 7.62133L4.94733 7.686L6.58 7.856H6.83933L6.876 7.75133L6.78667 7.686L6.718 7.62133L5.146 6.55733L3.44467 5.432L2.554 4.784L2.07133 4.45667L1.82867 4.14867L1.72333 3.47667L2.16067 2.99533L2.748 3.03533L2.898 3.076L3.49333 3.53333L4.76533 4.51733L6.426 5.73933L6.66933 5.942L6.766 5.87333L6.77867 5.82467L6.66933 5.642L5.766 4.01133L4.802 2.35133L4.37267 1.66333L4.25933 1.25067C4.21615 1.09217 4.19286 0.928916 4.19 0.764667L4.68867 0.0893333L4.964 0L5.628 0.0893333L5.908 0.332L6.32133 1.27467L6.98933 2.76067L8.026 4.78067L8.33 5.37933L8.492 5.934L8.55267 6.104H8.658V6.00667L8.74333 4.86933L8.90133 3.47267L9.05467 1.676L9.108 1.16933L9.35867 0.562667L9.85667 0.234667L10.246 0.421333L10.566 0.878L10.5213 1.174L10.3307 2.408L9.958 4.34333L9.71533 5.638H9.85667L10.0187 5.47667L10.6753 4.606L11.7767 3.23L12.2633 2.68333L12.83 2.08067L13.1947 1.79333H13.8833L14.39 2.546L14.1633 3.32333L13.454 4.22133L12.8667 4.98267L12.024 6.116L11.4973 7.02267L11.546 7.096L11.6713 7.08267L13.5753 6.67867L14.604 6.492L15.8313 6.282L16.3867 6.54067L16.4473 6.804L16.2287 7.342L14.916 7.666L13.3767 7.974L11.084 8.516L11.056 8.536L11.0887 8.57667L12.1213 8.674L12.5627 8.698H13.644L15.6573 8.848L16.184 9.196L16.5 9.62133L16.4473 9.94467L15.6373 10.358L14.544 10.0987L11.9913 9.492L11.1167 9.27267H10.9953V9.346L11.724 10.058L13.0613 11.2647L14.734 12.818L14.8187 13.2033L14.604 13.5067L14.3773 13.474L12.9073 12.3693L12.34 11.8713L11.056 10.7913H10.9707V10.9047L11.2667 11.3373L12.83 13.6847L12.9113 14.4047L12.798 14.64L12.3927 14.782L11.9473 14.7007L11.0313 13.4173L10.088 11.9727L9.326 10.6773L9.23267 10.7307L8.78333 15.5667L8.57267 15.8133L8.08667 16L7.682 15.6927L7.46733 15.1947L7.682 14.2107L7.94133 12.928L8.15133 11.908L8.342 10.6413L8.45533 10.22L8.44733 10.192L8.354 10.204L7.398 11.5153L5.94467 13.4787L4.794 14.7087L4.518 14.818L4.04 14.5713L4.08467 14.13L4.352 13.7373L5.944 11.7133L6.904 10.4587L7.524 9.73467L7.52 9.62933H7.48333L3.25467 12.3733L2.50133 12.4707L2.17667 12.1667L2.21733 11.6693L2.37133 11.5073L3.64333 10.6327L3.63933 10.6367Z" fill="#d97757">
</path>
</svg>
</g>
</g>
</g>
<g clip-path="url(#_R_3tb6_-top-face-blur)" filter="url(#_R_3tb6_-blur)">
<rect width="106.67333333333332" height="159.937" transform="matrix(0.865593 -0.500749 0.865593 0.500749 870.781 602.1621)" fill="white">
</rect>
<rect data-block-face="right-top" width="84.91000000000003" height="133.714" transform="matrix(0.865593 -0.500749 0.865593 0.500749 892.932 614.9281)" fill="#222">
</rect>
</g>
</g>
<rect width="160.198" height="72.0695" transform="matrix(0.865561 0.500804 -3.17692e-05 -1 870.492 674.273)" fill="white" fill-opacity="0.8" stroke="#171717" stroke-linejoin="bevel">
</rect>
<rect width="106.67333333333332" height="159.937" transform="matrix(0.865593 -0.500749 0.865593 0.500749 870.781 602.1621)" fill="white" fill-opacity="0.8" stroke="#171717" stroke-linejoin="bevel">
</rect>
</g>
<defs>
<filter id="_R_3tb6_-blur" x="0" y="0" xmlns="http://www.w3.org/2000/svg">
<feGaussianBlur in="SourceGraphic" stdDeviation="3.5">
</feGaussianBlur>
</filter>
<clipPath id="_R_3tb6_-left-face-blur">
<rect width="160.198" height="72.0695" transform="matrix(0.865561 0.500804 -3.17692e-05 -1 870.492 674.273)">
</rect>
</clipPath>
<clipPath id="_R_3tb6_-top-face-blur">
<rect width="106.67333333333332" height="159.937" transform="matrix(0.865593 -0.500749 0.865593 0.500749 870.781 602.1621)">
</rect>
</clipPath>
</defs>
</g>
</g>
<g transform="translate(-160 0)">
<g clip-path="url(#_R_1r6_-clip-path)">
<path d="M1054.62 822.828L1333.56 661.794L1380.94 689.149L1102 850.183L1054.62 822.828Z" fill="#F5F5F5">
</path>
<g data-bottom-tile="right" style="transform:translate(39.8485383043px, -23.004861655600003px)">
<path d="M1134.8 776.387L1180.13 802.557L1180.13 857.957L1134.81 831.787L1134.8 776.387Z" fill="white" stroke="#D4D4D4">
</path>
<rect width="46.0123" height="54.7128" transform="matrix(0.866041 -0.499972 0.866041 0.499972 1134.32 776.82)" fill="white">
</rect>
<rect width="46.0123" height="54.7128" transform="matrix(0.866041 -0.499972 0.866041 0.499972 1134.32 776.82)" stroke="#D4D4D4">
</rect>
</g>
<g data-bottom-tile="left" style="transform:translate(-79.6970766086px, 46.009723311200005px)">
<path d="M1134.8 776.387L1180.13 802.557L1180.13 857.957L1134.81 831.787L1134.8 776.387Z" fill="white" stroke="#D4D4D4">
</path>
<rect width="46.0123" height="54.7128" transform="matrix(0.866041 -0.499972 0.866041 0.499972 1134.32 776.82)" fill="white">
</rect>
<rect width="46.0123" height="54.7128" transform="matrix(0.866041 -0.499972 0.866041 0.499972 1134.32 776.82)" stroke="#D4D4D4">
</rect>
</g>
</g>
<path d="M1333.56 662.294L1380.08 689.149L1102 849.683L1055.49 822.828L1333.56 662.294Z" stroke="#D4D4D4">
</path>
<g>
<rect data-bottom-icon="0" width="45.0123" height="51.7128" transform="matrix(0.866041 -0.499972 0.866041 0.499972 1056.5 823.5)" fill="transparent">
</rect>
<g transform="matrix(0.866041 -0.499972 0.866041 0.499972 433 1196)">
<svg xmlns:xlink="http://www.w3.org/1999/xlink" viewBox="0 0 16 16" xmlns="http://www.w3.org/2000/svg" height="24" fill="black">
<path d="M6.18298 9.04898V3.85298L9.49398 1.94098C10.929 1.11298 12.764 1.60398 13.592 3.03898C14.146 3.99898 14.11 5.13798 13.595 6.03398" stroke="black" stroke-linecap="round" stroke-linejoin="round">
</path>
<path d="M7.99993 5.90198L12.4999 8.49998V12.323C12.4999 13.98 11.1569 15.323 9.49993 15.323C8.39193 15.323 7.42393 14.722 6.90393 13.828" stroke="black" stroke-linecap="round" stroke-linejoin="round">
</path>
<path d="M9.81697 9.04902L5.31697 11.647L2.00597 9.73502C0.570974 8.90702 0.0789743 7.07202 0.907974 5.63702C1.46197 4.67702 2.46697 4.13902 3.49997 4.13702" stroke="black" stroke-linecap="round" stroke-linejoin="round">
</path>
<path d="M8 10.098L3.5 7.5V3.677C3.5 2.02 4.843 0.677002 6.5 0.677002C7.608 0.677002 8.576 1.278 9.096 2.172" stroke="black" stroke-linecap="round" stroke-linejoin="round">
</path>
<path d="M6.18298 6.95103L10.683 4.35303L13.994 6.26503C15.429 7.09303 15.921 8.92803 15.092 10.363C14.538 11.323 13.533 11.861 12.5 11.863" stroke="black" stroke-linecap="round" stroke-linejoin="round">
</path>
<path d="M9.81696 6.95099V12.147L6.50596 14.059C5.07096 14.887 3.23596 14.396 2.40796 12.961C1.85396 12.001 1.88996 10.862 2.40496 9.96599" stroke="black" stroke-linecap="round" stroke-linejoin="round">
</path>
</svg>
</g>
<rect data-bottom-icon="1" width="45.0123" height="51.7128" transform="matrix(0.866041 -0.499972 0.866041 0.499972 1096.3485383043 800.4951383444)" fill="transparent">
</rect>
<g transform="matrix(0.866041 -0.499972 0.866041 0.499972 472.8485383043 1172.9951383444)">
<svg xmlns="http://www.w3.org/2000/svg" fill="none" viewBox="0 0 16 16" height="24">
<path d="M16 8.016A8.522 8.522 0 008.016 16h-.032A8.521 8.521 0 000 8.016v-.032A8.521 8.521 0 007.984 0h.032A8.522 8.522 0 0016 7.984v.032z" fill="url(#prefix__paint0_radial_980_20147)">
</path>
<defs>
<radialGradient id="prefix__paint0_radial_980_20147" cx="0" cy="0" r="1" gradientUnits="userSpaceOnUse" gradientTransform="matrix(16.1326 5.4553 -43.70045 129.2322 1.588 6.503)">
<stop offset="0.067" stop-color="#9168C0">
</stop>
<stop offset="0.343" stop-color="#5684D1">
</stop>
<stop offset="0.672" stop-color="#1BA1E3">
</stop>
</radialGradient>
</defs>
</svg>
</g>
<rect data-bottom-icon="2" width="45.0123" height="51.7128" transform="matrix(0.866041 -0.499972 0.866041 0.499972 1136.1970766086 777.4902766888)" fill="transparent">
</rect>
<g transform="matrix(0.866041 -0.499972 0.866041 0.499972 512.6970766086 1149.9902766888)">
<svg xmlns:xlink="http://www.w3.org/1999/xlink" viewBox="0 0 17 16" fill="none" xmlns="http://www.w3.org/2000/svg" height="24">
<path fill-rule="evenodd" clip-rule="evenodd" d="M3.63933 10.6367L6.786 8.872L6.83933 8.71867L6.786 8.63333H6.63333L6.10667 8.60133L4.308 8.55267L2.74867 8.488L1.238 8.40667L0.857333 8.326L0.5 7.856L0.536667 7.62133L0.856667 7.40733L1.314 7.44733L2.32733 7.516L3.846 7.62133L4.94733 7.686L6.58 7.856H6.83933L6.876 7.75133L6.78667 7.686L6.718 7.62133L5.146 6.55733L3.44467 5.432L2.554 4.784L2.07133 4.45667L1.82867 4.14867L1.72333 3.47667L2.16067 2.99533L2.748 3.03533L2.898 3.076L3.49333 3.53333L4.76533 4.51733L6.426 5.73933L6.66933 5.942L6.766 5.87333L6.77867 5.82467L6.66933 5.642L5.766 4.01133L4.802 2.35133L4.37267 1.66333L4.25933 1.25067C4.21615 1.09217 4.19286 0.928916 4.19 0.764667L4.68867 0.0893333L4.964 0L5.628 0.0893333L5.908 0.332L6.32133 1.27467L6.98933 2.76067L8.026 4.78067L8.33 5.37933L8.492 5.934L8.55267 6.104H8.658V6.00667L8.74333 4.86933L8.90133 3.47267L9.05467 1.676L9.108 1.16933L9.35867 0.562667L9.85667 0.234667L10.246 0.421333L10.566 0.878L10.5213 1.174L10.3307 2.408L9.958 4.34333L9.71533 5.638H9.85667L10.0187 5.47667L10.6753 4.606L11.7767 3.23L12.2633 2.68333L12.83 2.08067L13.1947 1.79333H13.8833L14.39 2.546L14.1633 3.32333L13.454 4.22133L12.8667 4.98267L12.024 6.116L11.4973 7.02267L11.546 7.096L11.6713 7.08267L13.5753 6.67867L14.604 6.492L15.8313 6.282L16.3867 6.54067L16.4473 6.804L16.2287 7.342L14.916 7.666L13.3767 7.974L11.084 8.516L11.056 8.536L11.0887 8.57667L12.1213 8.674L12.5627 8.698H13.644L15.6573 8.848L16.184 9.196L16.5 9.62133L16.4473 9.94467L15.6373 10.358L14.544 10.0987L11.9913 9.492L11.1167 9.27267H10.9953V9.346L11.724 10.058L13.0613 11.2647L14.734 12.818L14.8187 13.2033L14.604 13.5067L14.3773 13.474L12.9073 12.3693L12.34 11.8713L11.056 10.7913H10.9707V10.9047L11.2667 11.3373L12.83 13.6847L12.9113 14.4047L12.798 14.64L12.3927 14.782L11.9473 14.7007L11.0313 13.4173L10.088 11.9727L9.326 10.6773L9.23267 10.7307L8.78333 15.5667L8.57267 15.8133L8.08667 16L7.682 15.6927L7.46733 15.1947L7.682 14.2107L7.94133 12.928L8.15133 11.908L8.342 10.6413L8.45533 10.22L8.44733 10.192L8.354 10.204L7.398 11.5153L5.94467 13.4787L4.794 14.7087L4.518 14.818L4.04 14.5713L4.08467 14.13L4.352 13.7373L5.944 11.7133L6.904 10.4587L7.524 9.73467L7.52 9.62933H7.48333L3.25467 12.3733L2.50133 12.4707L2.17667 12.1667L2.21733 11.6693L2.37133 11.5073L3.64333 10.6327L3.63933 10.6367Z" fill="#d97757">
</path>
</svg>
</g>
</g>
<g>
<rect data-bottom-icon="3" width="45.0123" height="51.7128" transform="matrix(0.866041 -0.499972 0.866041 0.499972 1176.0456149129 754.4854150332)" fill="transparent">
</rect>
<g transform="matrix(0.866041 -0.499972 0.866041 0.499972 550.5456149129 1125.9854150332)">
<svg xmlns:xlink="http://www.w3.org/1999/xlink" viewBox="0 0 28 28" fill="none" xmlns="http://www.w3.org/2000/svg" height="28">
<path fill-rule="evenodd" clip-rule="evenodd" d="M24.9774 22.4699C24.5241 23.1552 24.1808 23.9992 23.2595 23.9992C21.7089 23.9992 21.6249 21.6079 20.0729 21.6079C18.5217 21.6079 18.6057 23.9992 17.0551 23.9992C15.5045 23.9992 15.4205 21.6079 13.8685 21.6079C12.3173 21.6079 12.4013 23.9992 10.85 23.9992C9.29939 23.9992 9.21539 21.6079 7.66346 21.6079C6.11152 21.6079 6.19685 23.9992 4.64492 23.9992C4.15761 23.9992 3.81495 23.7632 3.5263 23.4392C2.37462 21.4259 1.77187 19.1455 1.77837 16.8261C1.77837 9.74176 7.25014 4 13.9999 4C20.7509 4 26.222 9.74242 26.222 16.8261C26.222 18.8507 25.774 20.766 24.9774 22.4699Z" fill="#FB70A9">
</path>
<path fill-rule="evenodd" clip-rule="evenodd" d="M24.9774 22.4699C24.5241 23.1552 24.1808 23.9992 23.2595 23.9992C21.7089 23.9992 21.6249 21.6079 20.0729 21.6079C18.5217 21.6079 18.6057 23.9992 17.0551 23.9992C15.5045 23.9992 15.4205 21.6079 13.8685 21.6079C12.3173 21.6079 12.4013 23.9992 10.85 23.9992C9.29939 23.9992 9.21539 21.6079 7.66346 21.6079C6.11152 21.6079 6.19685 23.9992 4.64492 23.9992C4.15761 23.9992 3.81495 23.7632 3.5263 23.4392C2.37462 21.4259 1.77187 19.1455 1.77837 16.8261C1.77837 9.74176 7.25014 4 13.9999 4C20.7509 4 26.222 9.74242 26.222 16.8261C26.222 18.8507 25.774 20.766 24.9774 22.4699Z" fill="#FB70A9">
</path>
<path fill-rule="evenodd" clip-rule="evenodd" d="M22.333 23.746C25.5355 18.9815 25.6189 13.6964 22.581 7.89062C24.9212 10.2869 26.2283 13.5055 26.2215 16.8549C26.2215 18.8722 25.7582 20.7814 24.9322 22.4773C24.4623 23.16 24.1056 24.0013 23.1503 24.0013C22.8237 24.0013 22.5597 23.9026 22.333 23.746Z" fill="#E24CA6">
</path>
<path fill-rule="evenodd" clip-rule="evenodd" d="M13.3457 20.0235C17.5962 20.0235 19.3855 17.5583 19.3855 14.0571C19.3855 10.5546 16.6822 7.33203 13.3457 7.33203C10.0105 7.33203 7.30664 10.5552 7.30664 14.0564C7.30664 17.5583 9.09523 20.0235 13.3457 20.0235Z" fill="white">
</path>
<path d="M11.7216 14.2576C12.9722 14.2576 13.9862 13.1376 13.9862 11.7577C13.9862 10.3771 12.9729 9.25781 11.7216 9.25781C10.471 9.25781 9.45703 10.3771 9.45703 11.7577C9.45703 13.1376 10.4703 14.2576 11.7216 14.2576Z" fill="#030776">
</path>
<path d="M11.3442 12.3346C11.9689 12.3346 12.4762 11.8179 12.4762 11.1813C12.4762 10.5433 11.9695 10.0273 11.3436 10.0273C10.7182 10.0273 10.2109 10.5433 10.2109 11.1806C10.2109 11.8179 10.7176 12.3346 11.3442 12.3346Z" fill="white">
</path>
</svg>
</g>
<rect data-bottom-icon="4" width="45.0123" height="51.7128" transform="matrix(0.866041 -0.499972 0.866041 0.499972 1215.8941532172 731.4805533776)" fill="transparent">
</rect>
<g transform="matrix(0.866041 -0.499972 0.866041 0.499972 590.3941532172 1102.9805533776)">
<svg xmlns:xlink="http://www.w3.org/1999/xlink" viewBox="0 0 28 28" fill="none" xmlns="http://www.w3.org/2000/svg" height="28">
<path d="M16.6634 4.00138L14.0001 8.61981L11.3369 4.00138H2.46777L14.0001 24L25.5325 4.00138H16.6634Z" fill="#41B883">
</path>
<path d="M16.6637 4.00107L14.0005 8.6195L11.3372 4.00107H7.08105L14.0005 16L20.9199 4.00107H16.6637Z" fill="#34495E">
</path>
</svg>
</g>
<rect data-bottom-icon="5" width="45.0123" height="51.7128" transform="matrix(0.866041 -0.499972 0.866041 0.499972 1255.7426915215 708.475691722)" fill="transparent">
</rect>
<g transform="matrix(0.866041 -0.499972 0.866041 0.499972 630.2426915215 1079.975691722)">
<svg xmlns:xlink="http://www.w3.org/1999/xlink" viewBox="0 0 28 28" fill="none" xmlns="http://www.w3.org/2000/svg" height="28">
<g clip-path="url(#clip0_116_4713)">
<path d="M14.0388 11.8516C12.8751 11.8516 11.9316 12.8047 11.9316 13.9805C11.9316 15.1562 12.8751 16.1094 14.0388 16.1094C15.2026 16.1094 16.1461 15.1562 16.1461 13.9805C16.1461 12.8047 15.2026 11.8516 14.0388 11.8516Z" fill="#087EA4">
</path>
<path d="M24.9984 13.9998C24.9984 12.3284 23.4665 10.8626 21.0273 9.89786C21.0599 9.68061 21.0894 9.46571 21.1103 9.25473C21.3509 6.85318 20.7782 5.11987 19.4984 4.37321C18.0666 3.53792 16.0442 4.14419 13.9992 5.79751C11.9543 4.14419 9.93185 3.53792 8.5 4.37321C7.22026 5.11987 6.64752 6.85318 6.8881 9.25473C6.90906 9.46571 6.93777 9.68139 6.97114 9.89943C6.76781 9.97786 6.56836 10.061 6.37668 10.1481C4.19903 11.1371 3 12.5065 3 13.9998C3 15.6711 4.53196 17.137 6.97114 18.1017C6.93777 18.319 6.90906 18.5339 6.8881 18.7448C6.64752 21.1464 7.22026 22.8797 8.5 23.6264C8.93999 23.8784 9.43855 24.0073 9.94426 23.9997C11.1565 23.9997 12.572 23.355 13.9992 22.2021C15.4256 23.355 16.842 23.9997 18.0557 23.9997C18.5614 24.0072 19.06 23.8783 19.5 23.6264C20.7797 22.8797 21.3525 21.1464 21.1119 18.7448C21.0909 18.5339 21.0615 18.319 21.0289 18.1017C23.468 17.1386 25 15.6704 25 13.9998M18.0464 5.05869C18.3716 5.05077 18.693 5.13035 18.9777 5.28928C19.8663 5.8077 20.2652 7.21396 20.0712 9.14728C20.058 9.27904 20.0425 9.41237 20.0238 9.54649C19.0096 9.23781 17.971 9.01766 16.9196 8.88846C16.2822 8.03219 15.5733 7.23267 14.8009 6.49868C16.0139 5.55124 17.1524 5.05869 18.0456 5.05869M17.6289 16.1174C17.2364 16.8059 16.809 17.4734 16.3484 18.1174C15.5676 18.1984 14.7833 18.2388 13.9984 18.2382C13.2139 18.2387 12.4298 18.1984 11.6493 18.1174C11.1899 17.4734 10.7638 16.8059 10.3727 16.1174C9.98017 15.4308 9.62347 14.724 9.30401 13.9998C9.62347 13.2756 9.98017 12.5687 10.3727 11.8822C10.7632 11.1965 11.188 10.5313 11.6454 9.88923C12.4273 9.80618 13.213 9.76481 13.9992 9.76531C14.7838 9.76483 15.5679 9.80515 16.3484 9.8861C16.8074 10.5291 17.2337 11.1954 17.6258 11.8822C18.018 12.5689 18.3747 13.2757 18.6944 13.9998C18.3747 14.7238 18.018 15.4307 17.6258 16.1174M19.2284 15.3331C19.4747 16.0119 19.6769 16.7061 19.8337 17.4115C19.1532 17.6259 18.4594 17.7949 17.7569 17.9174C18.0239 17.5106 18.2826 17.0873 18.533 16.6476C18.7806 16.2131 19.0126 15.7747 19.2315 15.3362M12.5255 19.2491C13.0082 19.2789 13.501 19.2962 14 19.2962C14.499 19.2962 14.9949 19.2789 15.4784 19.2491C15.02 19.804 14.5261 20.328 14 20.8178C13.475 20.3281 12.9824 19.8041 12.5255 19.2491ZM10.2423 17.9158C9.53958 17.7939 8.84557 17.6254 8.16474 17.4115C8.32093 16.7073 8.52236 16.014 8.76774 15.3362C8.98349 15.7747 9.21476 16.2131 9.46621 16.6476C9.71765 17.0821 9.97763 17.5103 10.2423 17.9174M8.76774 12.6625C8.52323 11.9873 8.32233 11.2967 8.16629 10.5951C8.84543 10.381 9.53758 10.2114 10.2384 10.0877C9.97298 10.4931 9.713 10.9135 9.46233 11.352C9.21166 11.7904 8.98271 12.2233 8.76386 12.6625M15.4738 8.74964C14.991 8.71983 14.4982 8.70258 13.9953 8.70258C13.4966 8.70258 13.0051 8.71826 12.5208 8.74964C12.9778 8.19467 13.4703 7.67067 13.9953 7.18102C14.5217 7.67054 15.0155 8.19454 15.4738 8.74964ZM18.5315 11.352C18.28 10.9117 18.02 10.4882 17.7515 10.0814C18.4558 10.2039 19.1514 10.3731 19.8337 10.588C19.6772 11.2922 19.4757 11.9854 19.2307 12.6633C19.015 12.2249 18.7829 11.7865 18.5322 11.3527M7.93037 9.14806C7.73402 7.21553 8.13525 5.80849 9.02307 5.29006C9.30788 5.13138 9.62922 5.05181 9.95435 5.05948C10.8476 5.05948 11.9861 5.55202 13.1991 6.49946C12.4261 7.23398 11.7168 8.03402 11.0789 8.89081C10.0277 9.02063 8.98924 9.23997 7.9746 9.54649C7.95675 9.41237 7.94045 9.27983 7.92804 9.14806M6.80662 11.1135C6.92613 11.0612 7.04798 11.009 7.17215 10.9567C7.41626 11.9975 7.74727 13.0155 8.16163 13.9998C7.74649 14.986 7.41521 16.0061 7.17137 17.0492C5.19395 16.2296 4.04769 15.0939 4.04769 13.9998C4.04769 12.9629 5.05658 11.9112 6.80662 11.1135ZM9.02307 22.7095C8.13525 22.1911 7.73402 20.784 7.93037 18.8515C7.94278 18.7197 7.95908 18.5872 7.97693 18.4523C8.99118 18.7609 10.0297 18.981 11.0812 19.1103C11.7188 19.9669 12.4276 20.7669 13.1999 21.5017C11.5088 22.8217 9.96367 23.2569 9.0254 22.7095M20.0704 18.8515C20.2644 20.7848 19.8655 22.1911 18.9769 22.7095C18.0394 23.2585 16.4935 22.8217 14.8032 21.5017C15.5752 20.7669 16.2838 19.9669 16.9211 19.1103C17.9726 18.9811 19.0112 18.761 20.0254 18.4523C20.044 18.5872 20.0595 18.7197 20.0727 18.8515M20.8317 17.0476C20.5872 16.0052 20.2557 14.9856 19.8407 13.9998C20.2555 13.0134 20.5868 11.9933 20.831 10.9504C22.8045 11.77 23.9539 12.9057 23.9539 13.9998C23.9539 15.0939 22.8076 16.2296 20.8302 17.0492" fill="#087EA4">
</path>
</g>
<defs>
<clipPath id="clip0_116_4713">
<rect width="22" height="20" fill="white" transform="translate(3 4)">
</rect>
</clipPath>
</defs>
</svg>
</g>
<rect data-bottom-icon="6" width="45.0123" height="51.7128" transform="matrix(0.866041 -0.499972 0.866041 0.499972 1295.5912298258 685.4708300664)" fill="transparent">
</rect>
<g transform="matrix(0.866041 -0.499972 0.866041 0.499972 670.0912298257999 1056.9708300664)">
<svg xmlns:xlink="http://www.w3.org/1999/xlink" viewBox="0 0 28 28" fill="none" xmlns="http://www.w3.org/2000/svg" height="28">
<path d="M21.4389 12.0906C21.4389 12.0906 23.5664 9.06004 21.5613 6.16726C19.0301 2.9722 16.2043 4.25405 16.2043 4.25405C16.2043 4.25405 11.1688 6.93254 8.38313 8.83045C6.24033 10.361 4.95465 12.2895 6.80664 15.519C8.67393 18.7332 13.8166 17.371 13.8166 17.371" stroke="#FE640B" stroke-width="1.11109" stroke-linecap="round" stroke-linejoin="round">
</path>
<path d="M6.56201 16.0082C6.56201 16.0082 4.43451 19.0388 6.43956 21.9315C8.44461 24.8396 11.7966 23.8295 11.7966 23.8295C11.7966 23.8295 16.8321 21.1663 19.6178 19.2684C21.7606 17.7378 23.0462 15.8093 21.1942 12.5798C19.327 9.36557 14.1842 10.7278 14.1842 10.7278M11.3986 12.4573L17.7352 8.53906M10.2048 19.6357L16.5413 15.7327" stroke="#FE640B" stroke-width="1.11109" stroke-linecap="round" stroke-linejoin="round">
</path>
</svg>
</g>
</g>
<defs>
<clipPath id="_R_1r6_-clip-path">
<path d="M1054.62 822.828L1333.56 661.794L1380.94 689.149L1102 850.183L1054.62 822.828Z" fill="white">
</path>
</clipPath>
</defs>
</g>
<defs>
<pattern id="grid-_R_36_" x="-1" y="-1" width="53.5" height="53.5" patternUnits="userSpaceOnUse">
<path d="M 53.5 0 L 0 0 0 53.5" fill="transparent" stroke="#00000015" stroke-width="1.5">
</path>
</pattern>
<radialGradient id="_R_36_-radial-gradient" gradientUnits="userSpaceOnUse" cx="1200" cy="1000" r="1300">
<stop offset="0%" stop-color="white" stop-opacity="1">
</stop>
<stop offset="50%" stop-color="white" stop-opacity="1">
</stop>
<stop offset="100%" stop-color="white" stop-opacity="0">
</stop>
</radialGradient>
<mask id="_R_36_-radial-mask" maskUnits="userSpaceOnUse" x="0" y="0" width="1512" height="896">
<rect x="0" y="0" width="1512" height="896" fill="url(#_R_36_-radial-gradient)">
</rect>
</mask>
</defs>
</svg>
