<svg xmlns="http://www.w3.org/2000/svg" xmlns:xlink="http://www.w3.org/1999/xlink" viewBox="0 0 524 398" fill="none" aria-hidden="true" class="absolute bottom-0 left-0 h-auto w-full overflow-hidden"><g transform="translate(12 0)"><path fill="url(#_R_acrj_-b)" d="M0 0h1395.3v1453.54H0z" transform="matrix(.86604 -.49997 .86604 .49997 -544.675 288.843)"></path><path fill="url(#_R_acrj_-c)" d="M0 0h1395.3v1453.54H0z" transform="matrix(.86604 -.49997 .86604 .49997 -544.675 288.843)"></path><path stroke="#2563eb" stroke-width="2.295" d="m93.19 336.236 33.082 19.713a101 101 0 0 0 102.21.697l352.232-203.432c30.576-17.659 30.602-61.783.048-79.479l-17.109-9.909"></path><path fill="#fff" d="M311.867 310.191c6.498 3.751 9.747 8.667 9.748 13.584s-3.249 9.835-9.748 13.587c-12.997 7.504-34.069 7.504-47.066 0-6.497-3.751-9.746-8.667-9.747-13.584s3.248-9.835 9.747-13.587c12.997-7.503 34.069-7.503 47.066 0"></path><path fill="#fff" stroke="#2563eb" stroke-linejoin="round" stroke-width="1.722" d="M311.867 301.583c-12.997-7.503-34.069-7.503-47.066 0v8.608c12.997-7.503 34.069-7.503 47.066 0z"></path><path fill="#fff" stroke="#2563eb" stroke-linejoin="round" stroke-width="1.722" d="M321.615 315.167c-.001-4.917-3.25-9.833-9.748-13.584v8.608c6.498 3.751 9.747 8.667 9.748 13.583z"></path><path fill="#fff" d="M264.801 301.583c-6.499 3.752-9.748 8.67-9.747 13.588v8.603c.001-4.916 3.25-9.832 9.747-13.583z"></path><path stroke="#2563eb" stroke-linejoin="round" stroke-width="1.722" d="M255.054 315.171c-.001-4.918 3.248-9.836 9.747-13.588v8.608c-6.499 3.752-9.748 8.669-9.747 13.587z"></path><path fill="#2563eb" d="M311.867 328.755c6.498-3.752 9.747-8.668 9.748-13.584v8.604c.001 4.917-3.249 9.835-9.748 13.587z"></path><path stroke="#2563eb" stroke-linejoin="round" stroke-width="1.722" d="M321.615 315.167c.001 4.918-3.249 9.835-9.748 13.588v8.607c6.499-3.752 9.749-8.67 9.748-13.587z"></path><path fill="#2563eb" stroke="#2563eb" stroke-linejoin="round" stroke-width="1.722" d="M255.054 315.171c.001 4.916 3.25 9.833 9.747 13.584v8.607c-6.497-3.751-9.746-8.667-9.747-13.584z"></path><path fill="#2563eb" stroke="#2563eb" stroke-linejoin="round" stroke-width="1.722" d="M264.801 328.755c12.997 7.503 34.069 7.503 47.066 0v8.607c-12.997 7.504-34.069 7.504-47.066 0z"></path><circle cx="27.819" cy="27.819" r="26.959" fill="#fff" stroke="#2563eb" stroke-linejoin="round" stroke-width="1.722" transform="matrix(.86604 -.49997 .86604 .49997 240.129 315.089)"></circle><path fill="url(#_R_acrj_-d)" d="M265.573 328.167c-12.559-7.251-12.559-19.007 0-26.257 12.56-7.251 32.923-7.251 45.482 0 12.56 7.25 12.56 19.006 0 26.257-12.559 7.25-32.922 7.25-45.482 0"></path><path fill="#3b73ed" d="M265.573 328.167c-12.559-7.251-12.559-19.007 0-26.257 12.56-7.251 32.923-7.251 45.482 0 12.56 7.25 12.56 19.006 0 26.257-12.559 7.25-32.922 7.25-45.482 0" style="mix-blend-mode:screen"></path><g filter="url(#_R_acrj_-e)"><path stroke="#d97757" stroke-width="2.295" d="m154.801 304.777 110.487 66.449c31.459 18.919 70.706 19.28 102.507.94l282.2-162.744c49.06-28.293 48.996-99.12-.116-127.324l-55.635-31.95"></path></g><path stroke="#f53003" stroke-width="2.295" d="m-79.262 438.087 958.786-555.51"></path><g filter="url(#_R_acrj_-f)"><path fill="#fff" d="M337.724 287.423c-6.587-3.802-6.587-9.967 0-13.77L553.783 148.92c6.587-3.802 17.266-3.802 23.852 0s6.587 9.968 0 13.77L361.576 287.423c-6.587 3.803-17.266 3.803-23.852 0" shape-rendering="crispEdges"></path><path stroke="#2563eb" stroke-width="1.148" d="M553.286 148.633c6.861-3.961 17.985-3.961 24.846 0s6.861 10.383 0 14.344L362.073 287.71c-6.861 3.961-17.986 3.961-24.847 0-6.86-3.961-6.86-10.383 0-14.344z" shape-rendering="crispEdges"></path><g stroke="#2563eb" stroke-width="0.984" clip-path="url(#_R_acrj_-g)"><path stroke-linecap="square" stroke-miterlimit="10" d="M354.621 283.406c1.098-.634-.237-2.432-2.982-4.017-2.744-1.584-5.859-2.355-6.957-1.721s.237 2.432 2.982 4.016 5.859 2.356 6.957 1.722Z"></path><path d="m344.681 283.407 9.939-5.738"></path><path stroke-linecap="square" stroke-miterlimit="10" d="M354.62 283.407c2.745-1.584 2.745-4.153 0-5.738-2.744-1.584-7.194-1.584-9.939 0s-2.745 4.154 0 5.738 7.195 1.585 9.939 0Z"></path></g><text xml:space="preserve" fill="#2563eb" font-size="18.363" font-weight="500" letter-spacing="-.01em" style="white-space:pre" transform="matrix(.86604 -.49997 .86604 .49997 355.949 270.401)"><tspan x="0" y="13.221">laravel-ai.laravel.cloud</tspan></text></g><g filter="url(#_R_acrj_-h)"><path fill="#fff" d="M441.671 325.212c-6.586-3.802-6.586-9.967 0-13.77l167.561-96.734c6.587-3.803 17.266-3.803 23.852 0s6.587 9.967 0 13.77l-167.561 96.734c-6.586 3.803-17.265 3.803-23.852 0" shape-rendering="crispEdges"></path><path stroke="#d97757" stroke-width="1.148" d="M608.735 214.421c6.861-3.961 17.985-3.961 24.846 0s6.861 10.383 0 14.344L466.02 325.499c-6.861 3.961-17.985 3.961-24.846 0s-6.861-10.383 0-14.344z" shape-rendering="crispEdges"></path><g stroke="#d97757" stroke-width="0.984" clip-path="url(#_R_acrj_-i)"><path stroke-linecap="square" stroke-miterlimit="10" d="M458.57 321.195c1.098-.634-.237-2.432-2.982-4.017-2.745-1.584-5.86-2.355-6.958-1.721s.238 2.432 2.982 4.017c2.745 1.584 5.86 2.355 6.958 1.721Z"></path><path d="m448.63 321.196 9.939-5.738"></path><path stroke-linecap="square" stroke-miterlimit="10" d="M458.569 321.196c2.745-1.584 2.745-4.153 0-5.738-2.745-1.584-7.195-1.584-9.939 0-2.745 1.585-2.745 4.154 0 5.738s7.194 1.585 9.939 0Z"></path></g><text xml:space="preserve" fill="#d97757" font-size="18.363" font-weight="500" letter-spacing="-.01em" style="white-space:pre" transform="matrix(.86604 -.49997 .86604 .49997 459.896 308.19)"><tspan x="0" y="13.221">skills.laravel.cloud</tspan></text></g><path fill="#fff" d="M424.872 340.601c6.498 3.751 9.747 8.667 9.748 13.584.001 4.918-3.249 9.835-9.748 13.588-12.997 7.503-34.069 7.503-47.066 0-6.497-3.752-9.747-8.668-9.747-13.584-.001-4.918 3.248-9.836 9.747-13.588 12.997-7.503 34.069-7.503 47.066 0"></path><path fill="#fff" stroke="#d97757" stroke-linejoin="round" stroke-width="1.722" d="M424.872 331.994c-12.997-7.504-34.069-7.504-47.066 0v8.607c12.997-7.503 34.069-7.503 47.066 0z"></path><path fill="#fff" stroke="#d97757" stroke-linejoin="round" stroke-width="1.722" d="M434.62 345.577c-.001-4.916-3.25-9.833-9.748-13.584v8.608c6.498 3.751 9.747 8.667 9.748 13.584z"></path><path fill="#fff" d="M377.806 331.993c-6.499 3.752-9.748 8.67-9.747 13.588v8.604c0-4.917 3.25-9.833 9.747-13.584z"></path><path stroke="#d97757" stroke-linejoin="round" stroke-width="1.722" d="M368.059 345.581c-.001-4.918 3.248-9.836 9.747-13.588v8.608c-6.499 3.752-9.748 8.67-9.747 13.587z"></path><path fill="#d97757" d="M424.872 359.165c6.498-3.751 9.747-8.668 9.748-13.584v8.604c.001 4.917-3.249 9.835-9.748 13.587z"></path><path stroke="#d97757" stroke-linejoin="round" stroke-width="1.722" d="M434.62 345.577c.001 4.918-3.249 9.836-9.748 13.588v8.607c6.499-3.752 9.749-8.67 9.748-13.587z"></path><path fill="#d97757" stroke="#d97757" stroke-linejoin="round" stroke-width="1.722" d="M368.059 345.581c0 4.917 3.25 9.833 9.747 13.584v8.608c-6.497-3.752-9.747-8.668-9.747-13.584z"></path><path fill="#d97757" stroke="#d97757" stroke-linejoin="round" stroke-width="1.722" d="M377.806 359.165c12.997 7.503 34.069 7.503 47.066 0v8.608c-12.997 7.503-34.069 7.503-47.066 0z"></path><circle cx="27.819" cy="27.819" r="26.959" fill="#fff" stroke="#d97757" stroke-linejoin="round" stroke-width="1.722" transform="matrix(.86604 -.49997 .86604 .49997 353.134 345.499)"></circle><path fill="#d97757" d="m398.808 352.997 1.621-5.299-.121-.223-.164-.036-.183.166-.662.531-2.189 1.882-1.925 1.607-1.887 1.538-.548.321-.983-.125-.238-.294.123-.577.591-.448 1.282-1.015 1.925-1.52 1.383-1.115 2.138-1.571.307-.279-.083-.153-.183.025-.159.004-3.134.536-3.359.61-1.83.256-.963.163-.655-.072-.927-.615-.057-.993.744-.588.226-.118 1.252-.144 2.682-.301 3.427-.461.53-.042.033-.18-.044-.065-.347-.08-3.018-.797-3.125-.763-1.331-.284-.627-.326a3.4 3.4 0 0 1-.662-.453l-.217-1.269.22-.393.893-.618.622-.037 1.616.578 2.566.893 3.641 1.074 1.076.323.854.427.275.119.125-.113-.116-.105-1.258-1.325-1.481-1.684-1.964-2.115-.542-.605-.428-.929.199-.891.683-.217.926.152.3.368 1.249 1.544 1.87 2.499 1.259 1.666.168-.152-.002-.35-.262-1.65-.338-2.677-.077-1.116-.049-1.264.089-.704.816-.74 1.499.272.66 1.086.233 1.737.213 1.457.356 2.135.459 1.55.145.027.134-.148 1.772-2.487.997-1.309 1.202-1.548.968-.316.386.22.384.819-1.169 1.763-1.456 1.989-2.068 3.054-.01.053.087.009 1.34-1.006.552-.449 1.281-1.163 2.565-2.003 1.039-.189.882.121.325.408-.467 1.319-1.605.896-3.749 2.086-1.298.704-.144.131.087.079 1.715-.012 3.025-.13 3.839-.114.56.326.108.56-.308.209-3.062.383-1.266.07-2.813.21-.1.091.135.123.868.152 4.656.864.957.694.146.376-.31.59-.625.391-2.618-.407-2.844-.551-2.449-.586-.048.157 5.245 5.729.046.495-.354.724-.847.102-.849-.308-.921-1.298-1.226-1.67-.968-1.333-1.288-1.579-.369-.578-.043-.022-.096.113.434 2.451.622 3.693.107 2.571-.196.415-.861.247-.475-.527-.152-.713-.531-3.907-.362-2.393-.131-1.453-.13-.11-.043.04-1.733 7.525-.777.915-.746.02-.547-.584-.011-.341.463-2.316z"></path><path fill="#fff" d="M161.93 299.053c2.218 1.251 3.328 2.89 3.328 4.529 0 1.64-1.109 3.28-3.328 4.531-4.437 2.502-11.63 2.502-16.067 0-2.218-1.251-3.328-2.89-3.328-4.529 0-1.64 1.109-3.28 3.328-4.531 4.437-2.502 11.63-2.502 16.067 0"></path><path fill="#fff" stroke="#f53003" stroke-linejoin="round" stroke-width="1.148" d="M161.93 296.184c-4.437-2.502-11.63-2.502-16.067 0v2.87c4.437-2.502 11.63-2.502 16.067 0zM165.258 300.714c0-1.639-1.11-3.279-3.328-4.529v2.87c2.218 1.25 3.328 2.89 3.328 4.529z"></path><path fill="#fff" d="M145.863 296.185c-2.219 1.251-3.328 2.89-3.328 4.53v2.869c0-1.639 1.11-3.279 3.328-4.529z"></path><path stroke="#f53003" stroke-linejoin="round" stroke-width="1.148" d="M142.535 300.715c0-1.64 1.109-3.279 3.328-4.53v2.87c-2.219 1.251-3.328 2.89-3.328 4.53z"></path><path fill="#f53003" d="M161.93 305.244c2.218-1.25 3.328-2.89 3.328-4.529v2.869c0 1.64-1.109 3.279-3.328 4.53z"></path><path stroke="#f53003" stroke-linejoin="round" stroke-width="1.148" d="M165.258 300.714c0 1.64-1.109 3.279-3.328 4.53v2.87c2.219-1.251 3.328-2.89 3.328-4.53z"></path><path fill="#f53003" d="M142.535 300.714c.001 1.639 1.11 3.278 3.328 4.529v2.87c-2.218-1.251-3.328-2.89-3.328-4.529z"></path><path stroke="#f53003" stroke-linejoin="round" stroke-width="1.148" d="M145.863 305.243c-2.218-1.251-3.328-2.89-3.328-4.529v2.87c0 1.639 1.11 3.278 3.328 4.529z"></path><path fill="#f53003" stroke="#f53003" stroke-linejoin="round" stroke-width="1.148" d="M145.863 305.243c4.437 2.502 11.63 2.502 16.067 0v2.87c-4.437 2.502-11.63 2.502-16.067 0z"></path><circle cx="9.442" cy="9.442" r="8.868" fill="#fff" stroke="#f53003" stroke-linejoin="round" stroke-width="1.148" transform="matrix(.87107 -.49116 .87107 .49116 137.44 300.688)"></circle><path fill="#fff" d="M103.425 332.717c2.219 1.251 3.328 2.89 3.328 4.529 0 1.64-1.109 3.28-3.328 4.531-4.436 2.502-11.63 2.502-16.067 0-2.218-1.251-3.328-2.89-3.328-4.529 0-1.64 1.11-3.28 3.328-4.531 4.437-2.502 11.63-2.502 16.067 0"></path><path fill="#fff" stroke="#f53003" stroke-linejoin="round" stroke-width="1.148" d="M103.425 329.848c-4.437-2.502-11.63-2.502-16.067 0v2.87c4.437-2.502 11.63-2.502 16.067 0z"></path><path fill="#fff" stroke="#f53003" stroke-linejoin="round" stroke-width="1.148" d="M106.753 334.378c0-1.639-1.11-3.279-3.328-4.529v2.87c2.218 1.25 3.328 2.89 3.328 4.529z"></path><path fill="#fff" d="M87.358 329.849c-2.219 1.251-3.328 2.89-3.328 4.53v2.869c0-1.639 1.11-3.279 3.328-4.529z"></path><path stroke="#f53003" stroke-linejoin="round" stroke-width="1.148" d="M84.03 334.379c0-1.64 1.11-3.279 3.328-4.53v2.87c-2.219 1.251-3.328 2.89-3.328 4.53z"></path><path fill="#f53003" d="M103.425 338.908c2.218-1.25 3.328-2.89 3.328-4.529v2.869c0 1.64-1.109 3.279-3.328 4.53z"></path><path stroke="#f53003" stroke-linejoin="round" stroke-width="1.148" d="M106.753 334.378c0 1.64-1.109 3.279-3.328 4.53v2.87c2.219-1.251 3.328-2.89 3.328-4.53z"></path><path fill="#f53003" d="M84.03 334.378c0 1.639 1.11 3.279 3.328 4.529v2.87c-2.218-1.251-3.328-2.89-3.328-4.529z"></path><path stroke="#f53003" stroke-linejoin="round" stroke-width="1.148" d="M87.358 338.907c-2.218-1.251-3.328-2.89-3.328-4.529v2.87c0 1.639 1.11 3.278 3.328 4.529z"></path><path fill="#f53003" stroke="#f53003" stroke-linejoin="round" stroke-width="1.148" d="M87.358 338.907c4.437 2.502 11.63 2.502 16.067 0v2.87c-4.437 2.502-11.63 2.502-16.067 0z"></path><circle cx="9.442" cy="9.442" r="8.868" fill="#fff" stroke="#f53003" stroke-linejoin="round" stroke-width="1.148" transform="matrix(.87107 -.49116 .87107 .49116 78.935 334.353)"></circle></g><defs><clipPath id="_R_acrj_-g"><path fill="#fff" d="m337.724 280.538 11.927-6.886 11.927 6.886-11.927 6.886z"></path></clipPath><clipPath id="_R_acrj_-i"><path fill="#fff" d="m441.671 318.327 11.927-6.886 11.927 6.886-11.927 6.886z"></path></clipPath><clipPath id="_R_acrj_-k"><path fill="#fff" d="M0 0h32v32H0z"></path></clipPath><filter id="_R_acrj_-e" width="533.689" height="337.666" x="154.209" y="49.153" color-interpolation-filters="sRGB" filterUnits="userSpaceOnUse"><feFlood flood-opacity="0" result="BackgroundImageFix"></feFlood><feColorMatrix in="SourceAlpha" result="hardAlpha" values="0 0 0 0 0 0 0 0 0 0 0 0 0 0 0 0 0 0 127 0"></feColorMatrix><feOffset></feOffset><feComposite in2="hardAlpha" operator="out"></feComposite><feColorMatrix values="0 0 0 0 1 0 0 0 0 0 0 0 0 0 0 0 0 0 1 0"></feColorMatrix><feBlend in2="BackgroundImageFix" result="effect1_dropShadow_95_4858"></feBlend><feBlend in="SourceGraphic" in2="effect1_dropShadow_95_4858" result="shape"></feBlend></filter><filter id="_R_acrj_-f" width="263.764" height="156.863" x="325.798" y="142.035" color-interpolation-filters="sRGB" filterUnits="userSpaceOnUse"><feFlood flood-opacity="0" result="BackgroundImageFix"></feFlood><feColorMatrix in="SourceAlpha" result="hardAlpha" values="0 0 0 0 0 0 0 0 0 0 0 0 0 0 0 0 0 0 127 0"></feColorMatrix><feOffset dy="4.591"></feOffset><feColorMatrix values="0 0 0 0 0.145098 0 0 0 0 0.388235 0 0 0 0 0.921569 0 0 0 1 0"></feColorMatrix><feBlend in2="BackgroundImageFix" result="effect1_dropShadow_95_4858"></feBlend><feColorMatrix in="SourceAlpha" result="hardAlpha" values="0 0 0 0 0 0 0 0 0 0 0 0 0 0 0 0 0 0 127 0"></feColorMatrix><feOffset dy="2.295"></feOffset><feColorMatrix values="0 0 0 0 0.145098 0 0 0 0 0.388235 0 0 0 0 0.921569 0 0 0 1 0"></feColorMatrix><feBlend in2="effect1_dropShadow_95_4858" result="effect2_dropShadow_95_4858"></feBlend><feBlend in="SourceGraphic" in2="effect2_dropShadow_95_4858" result="shape"></feBlend></filter><filter id="_R_acrj_-h" width="215.265" height="128.864" x="429.745" y="207.823" color-interpolation-filters="sRGB" filterUnits="userSpaceOnUse"><feFlood flood-opacity="0" result="BackgroundImageFix"></feFlood><feColorMatrix in="SourceAlpha" result="hardAlpha" values="0 0 0 0 0 0 0 0 0 0 0 0 0 0 0 0 0 0 127 0"></feColorMatrix><feOffset dy="4.591"></feOffset><feColorMatrix values="0 0 0 0 0.85098 0 0 0 0 0.466667 0 0 0 0 0.341176 0 0 0 1 0"></feColorMatrix><feBlend in2="BackgroundImageFix" result="effect1_dropShadow_95_4858"></feBlend><feColorMatrix in="SourceAlpha" result="hardAlpha" values="0 0 0 0 0 0 0 0 0 0 0 0 0 0 0 0 0 0 127 0"></feColorMatrix><feOffset dy="2.295"></feOffset><feColorMatrix values="0 0 0 0 0.85098 0 0 0 0 0.466667 0 0 0 0 0.341176 0 0 0 1 0"></feColorMatrix><feBlend in2="effect1_dropShadow_95_4858" result="effect2_dropShadow_95_4858"></feBlend><feBlend in="SourceGraphic" in2="effect2_dropShadow_95_4858" result="shape"></feBlend></filter><pattern id="_R_acrj_-d" width="1" height="1" patternContentUnits="objectBoundingBox"><use xlink:href="#_R_acrj_-j" transform="scale(.00195) rotate(-45) translate(-258 104)" class="grayscale"></use></pattern><pattern id="_R_acrj_-b" width="1" height="1" patternTransform="scale(32)" patternUnits="userSpaceOnUse" preserveAspectRatio="none" viewBox="0 0 32 32"><g clip-path="url(#_R_acrj_-k)"><path fill="#fff" d="M0 0h32v32H0z"></path><path stroke="#e5e5e5" stroke-width="0.696" d="M.348.348h93.913v93.913H.348z"></path></g></pattern><radialGradient id="_R_acrj_-c" cx="0" cy="0" r="1" gradientTransform="rotate(90.002 -22.729 720.378)scale(524.821 503.773)" gradientUnits="userSpaceOnUse"><stop stop-color="#fff" stop-opacity="0"></stop><stop offset="1" stop-color="#fff"></stop></radialGradient><filter id="preview-blue-tint" color-interpolation-filters="sRGB"><feColorMatrix type="saturate" values="0"/><feColorMatrix type="matrix" values="0.4 0 0 0 0.2  0 0.5 0 0 0.35  0 0 0.7 0 0.6  0 0 0 1 0"/></filter><image id="_R_acrj_-j" width="512" height="512" preserveAspectRatio="none" href="/img/taylor-otwell.avif" filter="url(#preview-blue-tint)"></image></defs></svg>
