<svg width="531" height="278" viewBox="0 0 531 278" fill="none" xmlns="http://www.w3.org/2000/svg">
<path d="M0 87.6233V0H17.2346V74.4797H56.4259V87.6233H0Z" fill="white"/>
<path d="M65.2705 87.6233L97.9515 0H117.484L150.037 87.6233H131.782L107.654 19.2772L83.3985 87.6233H65.2705ZM79.6963 67.7204L84.2919 54.5769H129.739L134.207 67.7204H79.6963Z" fill="white"/>
<path d="M159.616 87.6233V0H192.936C200.17 0 206.127 1.21005 210.808 3.63012C215.489 6.05019 218.979 9.30479 221.277 13.3939C223.574 17.3995 224.723 21.8642 224.723 26.7878C224.723 31.461 223.617 35.8422 221.404 39.9313C219.191 43.9369 215.702 47.1915 210.936 49.695C206.255 52.1151 200.213 53.3251 192.808 53.3251H176.851V87.6233H159.616ZM205.957 87.6233L187.574 49.0691H206.213L225.617 87.6233H205.957ZM176.851 41.0579H191.915C197.106 41.0579 200.936 39.8061 203.404 37.3026C205.872 34.799 207.106 31.5027 207.106 27.4137C207.106 23.3245 205.872 20.1117 203.404 17.7751C201.021 15.355 197.191 14.1449 191.915 14.1449H176.851V41.0579Z" fill="white"/>
<path d="M235.003 87.6233L267.684 0H287.216L319.77 87.6233H301.514L277.386 19.2772L253.131 87.6233H235.003ZM249.429 67.7204L254.024 54.5769H299.472L303.94 67.7204H249.429Z" fill="white"/>
<path d="M338.924 87.6394L306.37 0.0161133H324.753L349.52 70.3652L374.414 0.0161133H392.669L360.116 87.6394H338.924Z" fill="white"/>
<path d="M403.859 87.6233V0H462.583V13.6443H421.094V36.5515H458.754V49.695H421.094V73.9793H462.583V87.6233H403.859Z" fill="white"/>
<path d="M474.229 87.6233V0H491.463V74.4797H530.653V87.6233H474.229Z" fill="white"/>
<path d="M0.00292969 129.526C0.00292969 124.066 4.42944 119.639 9.88986 119.639H69.2129C74.6733 119.639 79.0998 124.066 79.0998 129.526V188.849C79.0998 194.31 83.527 198.736 88.9874 198.736H148.31C153.771 198.736 158.197 203.163 158.197 208.623V267.946C158.197 273.406 153.771 277.833 148.31 277.833H9.88986C4.42944 277.833 0.00292969 273.406 0.00292969 267.946V129.526Z" fill="white"/>
<path d="M173.512 129.526C173.512 124.066 177.938 119.639 183.399 119.639H234.247C239.707 119.639 244.135 124.066 244.135 129.526V267.946C244.135 273.406 239.707 277.833 234.247 277.833H183.399C177.938 277.833 173.512 273.406 173.512 267.946V129.526Z" fill="white"/>
<path d="M257.059 133.948C253.773 127.374 258.553 119.639 265.903 119.639H392.102C399.451 119.639 404.232 127.374 400.945 133.948L337.846 260.147C334.202 267.434 323.803 267.434 320.159 260.147L257.059 133.948Z" fill="white"/>
<path fill-rule="evenodd" clip-rule="evenodd" d="M530.651 129.555C530.651 124.094 526.221 119.668 520.767 119.668L479.006 119.667C478.829 119.667 478.653 119.663 478.475 119.657C475.89 119.572 454.85 119.3 435.994 131.936C423.4 140.376 415.907 149.802 412.061 155.674C410.351 158.286 412.282 161.429 415.404 161.429H520.767C526.221 161.429 530.651 157.002 530.651 151.542V129.555ZM520.767 177.797C526.221 177.797 530.651 182.224 530.651 187.684V209.994C530.651 215.455 526.221 219.881 520.767 219.881H407.452C404.064 219.881 401.101 217.621 400.486 214.29C399.768 210.399 399.003 204.846 399.003 198.839C399.003 192.832 399.768 187.279 400.486 183.388C401.101 180.058 404.064 177.797 407.452 177.797H520.767ZM520.767 277.941C526.221 277.941 530.651 273.513 530.651 268.053V246.067C530.651 240.606 526.221 236.179 520.767 236.179H415.405C412.282 236.179 410.352 239.322 412.062 241.934C415.907 247.806 423.4 257.232 435.995 265.672C454.851 278.308 475.891 278.036 478.476 277.951C478.653 277.945 478.829 277.941 479.007 277.941H520.767Z" fill="white"/>
</svg>
